<?xml version="1.0" encoding="utf-8"?>
<!-- Generator: Adobe Illustrator 24.0.1, SVG Export Plug-In . SVG Version: 6.00 Build 0)  -->
<svg version="1.1" id="Layer_1" xmlns="http://www.w3.org/2000/svg" xmlns:xlink="http://www.w3.org/1999/xlink" x="0px" y="0px"
	 viewBox="0 0 460.3 228.9" style="enable-background:new 0 0 460.3 228.9;" xml:space="preserve">
<style type="text/css">
	.st0{fill:#FFFFFF;}
	.st1{fill:#FE6E01;}
	.st2{fill:#B50102;}
	.st3{fill:#801918;}
</style>
<g>
	<g>
		<path class="st0" d="M0,216.4v-42h13.8c5.2,0,8.6,0.2,10.2,0.6c2.4,0.6,4.5,2,6.1,4.1s2.5,4.8,2.5,8.2c0,2.6-0.5,4.7-1.4,6.5
			s-2.2,3.1-3.6,4.1c-1.5,1-2.9,1.7-4.5,2c-2,0.4-5,0.6-8.9,0.6H8.6v15.8L0,216.4L0,216.4z M8.6,181.5v11.9h4.7
			c3.4,0,5.6-0.2,6.8-0.7c1.1-0.4,2-1.1,2.7-2.1c0.6-0.9,1-2,1-3.3c0-1.5-0.5-2.8-1.4-3.8s-2.1-1.6-3.5-1.9c-1-0.2-3.1-0.3-6.2-0.3
			H8.6V181.5z"/>
		<path class="st0" d="M37.6,200.7c0-2.7,0.7-5.3,2-7.8s3.2-4.4,5.7-5.7c2.4-1.3,5.2-2,8.2-2c4.7,0,8.5,1.5,11.5,4.5
			s4.5,6.8,4.5,11.3c0,4.6-1.5,8.4-4.5,11.4s-6.8,4.5-11.4,4.5c-2.8,0-5.5-0.6-8.1-1.9s-4.5-3.1-5.8-5.5
			C38.3,207.2,37.6,204.2,37.6,200.7z M46,201.2c0,3,0.7,5.3,2.2,6.9c1.4,1.6,3.2,2.4,5.4,2.4c2.1,0,3.9-0.8,5.4-2.4
			c1.4-1.6,2.2-3.9,2.2-7c0-3-0.7-5.3-2.2-6.9c-1.4-1.6-3.2-2.4-5.4-2.4c-2.1,0-3.9,0.8-5.4,2.4S46,198.1,46,201.2z"/>
		<path class="st0" d="M72.9,207.7l8.2-1.2c0.3,1.6,1.1,2.8,2.1,3.6c1.1,0.8,2.6,1.2,4.5,1.2c2.1,0,3.7-0.4,4.8-1.1
			c0.7-0.5,1.1-1.3,1.1-2.1c0-0.6-0.2-1.1-0.6-1.5s-1.3-0.7-2.7-1.1c-6.6-1.4-10.7-2.7-12.5-3.9c-2.4-1.6-3.7-3.9-3.7-6.8
			c0-2.6,1.1-4.9,3.2-6.6c2.1-1.8,5.4-2.7,9.8-2.7c4.2,0,7.3,0.7,9.4,2c2,1.4,3.5,3.4,4.2,6l-7.7,1.4c-0.3-1.2-1-2.1-1.9-2.7
			s-2.2-0.9-3.9-0.9c-2.1,0-3.7,0.3-4.6,0.9c-0.6,0.4-0.9,1-0.9,1.6s0.3,1.1,0.8,1.5c0.7,0.5,3.3,1.3,7.6,2.3c4.3,1,7.4,2.2,9.1,3.6
			s2.6,3.4,2.6,6c0,2.8-1.2,5.2-3.5,7.2c-2.4,2-5.8,3-10.5,3c-4.2,0-7.5-0.8-10-2.5C75.3,212.9,73.7,210.6,72.9,207.7z"/>
		<path class="st0" d="M105.6,216.4v-6.3l11.5-13.1c1.9-2.1,3.3-3.7,4.2-4.6c-0.9,0.1-2.2,0.1-3.7,0.1l-10.9,0.1v-6.7h25.5v5.7
			L120.4,205l-4.1,4.4c2.3-0.1,3.7-0.2,4.2-0.2h12.6v7.1h-27.5V216.4z"/>
		<path class="st0" d="M138.5,195.7v-21.4h8.1v14.5l4-3.3v5.4l-4,3.3v22h-8.1V201l-4,3.3v-5.4L138.5,195.7z"/>
		<path class="st0" d="M153.1,200.7c0-2.7,0.7-5.3,2-7.8s3.2-4.4,5.7-5.7c2.4-1.3,5.2-2,8.2-2c4.7,0,8.5,1.5,11.5,4.5
			s4.5,6.8,4.5,11.3c0,4.6-1.5,8.4-4.5,11.4s-6.8,4.5-11.4,4.5c-2.8,0-5.5-0.6-8.1-1.9s-4.5-3.1-5.8-5.5
			C153.8,207.2,153.1,204.2,153.1,200.7z M161.5,201.2c0,3,0.7,5.3,2.2,6.9c1.4,1.6,3.2,2.4,5.4,2.4c2.1,0,3.9-0.8,5.4-2.4
			c1.4-1.6,2.2-3.9,2.2-7c0-3-0.7-5.3-2.2-6.9c-1.4-1.6-3.2-2.4-5.4-2.4c-2.1,0-3.9,0.8-5.4,2.4S161.5,198.1,161.5,201.2z"/>
		<path class="st0" d="M204.5,216.4v-6.3L216,197c1.9-2.1,3.3-3.7,4.2-4.6c-0.9,0.1-2.2,0.1-3.7,0.1l-10.9,0.1v-6.7h25.5v5.7
			L219.3,205l-4.1,4.4c2.3-0.1,3.7-0.2,4.2-0.2H232v7.1h-27.5L204.5,216.4L204.5,216.4z"/>
		<path class="st0" d="M254,174.4h15.7c3.5,0,6.2,0.3,8.1,0.8c2.5,0.7,4.6,2,6.4,3.9c1.8,1.9,3.1,4.1,4.1,6.8c0.9,2.7,1.4,6,1.4,9.9
			c0,3.5-0.4,6.4-1.3,8.9c-1.1,3.1-2.6,5.5-4.6,7.4c-1.5,1.4-3.5,2.5-6,3.4c-1.9,0.6-4.4,0.9-7.6,0.9H254L254,174.4L254,174.4z
			 M262.6,181.5v27.8h6.4c2.4,0,4.1-0.1,5.2-0.4c1.4-0.3,2.5-0.9,3.5-1.7c0.9-0.8,1.7-2.2,2.2-4.1c0.6-1.9,0.9-4.4,0.9-7.7
			c0-3.2-0.3-5.7-0.9-7.5c-0.6-1.7-1.4-3.1-2.4-4.1s-2.4-1.6-4-2c-1.2-0.3-3.5-0.4-7-0.4h-3.9V181.5z"/>
		<path class="st0" d="M293,186h8.7l7.4,21.6l7.2-21.6h8.4l-10.9,29.3l-1.9,5.3c-0.7,1.8-1.4,3.1-2,4.1c-0.6,0.9-1.4,1.7-2.2,2.3
			s-1.9,1-3.1,1.4c-1.2,0.3-2.6,0.5-4.2,0.5c-1.6,0-3.1-0.2-4.6-0.5l-0.7-6.3c1.3,0.2,2.4,0.4,3.5,0.4c1.9,0,3.3-0.5,4.2-1.6
			s1.6-2.5,2.1-4.2L293,186z"/>
		<path class="st0" d="M329.3,186h7.5v4.2c2.7-3.2,5.9-4.8,9.6-4.8c2,0,3.7,0.4,5.1,1.2c1.4,0.8,2.6,2,3.6,3.6
			c1.4-1.6,2.8-2.8,4.4-3.6c1.6-0.8,3.2-1.2,5-1.2c2.3,0,4.2,0.5,5.7,1.4c1.6,0.9,2.7,2.2,3.5,4c0.6,1.3,0.8,3.4,0.8,6.3v19.4h-8.1
			v-17.4c0-3-0.3-5-0.8-5.8c-0.8-1.1-1.9-1.7-3.5-1.7c-1.1,0-2.2,0.3-3.2,1s-1.7,1.7-2.2,3c-0.4,1.3-0.7,3.4-0.7,6.3v14.6h-8.1
			v-16.8c0-3-0.1-4.9-0.4-5.7c-0.3-0.9-0.7-1.5-1.3-1.9s-1.4-0.6-2.5-0.6c-1.3,0-2.4,0.3-3.4,1s-1.7,1.6-2.2,2.9
			c-0.4,1.3-0.7,3.4-0.7,6.3v14.8h-8.1L329.3,186L329.3,186z"/>
		<path class="st0" d="M400.5,206.7l8.1,1.3c-1,2.9-2.7,5.2-4.9,6.7c-2.3,1.5-5.1,2.3-8.5,2.3c-5.4,0-9.3-1.7-11.9-5.2
			c-2-2.8-3-6.3-3-10.5c0-5,1.3-9,4-11.8c2.7-2.9,6-4.3,10.1-4.3c4.6,0,8.2,1.5,10.8,4.5s3.9,7.6,3.8,13.7h-20.4
			c0.1,2.4,0.7,4.2,2,5.6c1.3,1.3,2.8,2,4.7,2c1.3,0,2.3-0.3,3.2-1C399.4,209.3,400.1,208.2,400.5,206.7z M401,198.6
			c-0.1-2.3-0.7-4.1-1.8-5.3c-1.2-1.2-2.6-1.8-4.2-1.8c-1.8,0-3.2,0.6-4.4,1.9s-1.7,3-1.7,5.2L401,198.6L401,198.6z"/>
		<path class="st0" d="M415.1,186h7.5v4.2c2.7-3.2,5.9-4.8,9.6-4.8c2,0,3.7,0.4,5.1,1.2c1.4,0.8,2.6,2,3.6,3.6
			c1.4-1.6,2.8-2.8,4.4-3.6c1.6-0.8,3.2-1.2,5-1.2c2.3,0,4.2,0.5,5.7,1.4c1.6,0.9,2.7,2.2,3.5,4c0.6,1.3,0.8,3.4,0.8,6.3v19.4h-8.1
			v-17.4c0-3-0.3-5-0.8-5.8c-0.8-1.1-1.9-1.7-3.5-1.7c-1.1,0-2.2,0.3-3.2,1s-1.7,1.7-2.2,3c-0.4,1.3-0.7,3.4-0.7,6.3v14.6h-8.1
			v-16.8c0-3-0.1-4.9-0.4-5.7c-0.3-0.9-0.7-1.5-1.3-1.9s-1.4-0.6-2.5-0.6c-1.3,0-2.4,0.3-3.4,1s-1.7,1.6-2.2,2.9
			c-0.4,1.3-0.7,3.4-0.7,6.3v14.8h-8.1L415.1,186L415.1,186z"/>
	</g>
	<g>
		<path class="st1" d="M121.9,140.3v11.3c0,2.8-2.3,5.1-5.1,5.1H83.4c-2.8,0-5.1-2.3-5.1-5.1V139c0-2.9,2.4-5.2,5.3-5.1l33.4,1.3
			C119.8,135.4,121.9,137.6,121.9,140.3z"/>
		<path class="st2" d="M126.9,128h-33c-3,0-5.3-2.5-5.1-5.4c0.5-9,2.8-26.4,13-28.9l30.8,9.9c2.7,0.9,4.3,3.8,3.5,6.5l-4.3,14.2
			C131.1,126.5,129.2,128,126.9,128z"/>
		<path class="st1" d="M111.5,79.3l11-14c1.9-2.4,5.4-2.9,7.9-1.1l13.1,9.7c1.9,1.4,2.4,4,1.3,6L137,93.3c-1.5,2.5-4.7,3.4-7.2,1.9
			l-17.1-9.8C110.5,84.4,109.9,81.4,111.5,79.3z"/>
		<path class="st1" d="M170.9,23.9c4.6-3,13.4-8.2,22.8-10.9c2.6-0.7,5.3,0.5,6.5,2.8c1.8,3.6,4,10.3,4.6,22.4
			c0.1,2.5-1.4,4.7-3.7,5.5l-17.2,6c-2.5,0.9-5.2-0.1-6.6-2.4c-2.5-4.1-6.4-11-8.5-17C167.8,28,168.7,25.3,170.9,23.9z"/>
		<path class="st2" d="M135.1,47.6c3.4-4.9,10.4-13.4,19.3-17.9c2-1,4.5-0.6,6,1.1c2.7,2.9,7,8.5,10.8,18.2c0.9,2.2,0.4,4.7-1.1,6.4
			c-3.1,3.4-8.6,9.2-14,12.7c-2,1.3-4.6,1.2-6.5-0.2c-3.8-2.8-10.2-7.8-14.3-13C133.6,52.8,133.5,49.8,135.1,47.6z"/>
		<path class="st2" d="M212.7,0h34.6c3,0,5.2,2.7,4.6,5.6l-6.5,30.5c-0.5,2.2-2.4,3.7-4.6,3.7h-23c-2.3,0-4.2-1.6-4.6-3.9L208,5.4
			C207.7,2.6,209.9,0,212.7,0z"/>
		<path class="st1" d="M264,13c5.9,1.4,16.1,4.5,22.7,10.4c1.5,1.4,1.9,3.6,1,5.4l-8.3,16.8c-1,2.1-3.4,3.1-5.6,2.3L257,42.4
			c-2.3-0.7-3.6-3.1-3.1-5.4l4.5-20.5C259.1,14,261.5,12.4,264,13z"/>
		<path class="st2" d="M304.1,30.1c5.5,2.6,14.8,8.3,20,19c1.1,2.3,0.5,5.1-1.5,6.7L309,66.9c-2.2,1.8-5.3,1.7-7.3-0.2L288,54.3
			c-2.1-1.9-2.5-5-0.9-7.3l10-15.1C298.6,29.8,301.6,28.9,304.1,30.1z"/>
		<path class="st1" d="M312.2,78l10.3,17.2c0.9,1.6,3,2.1,4.6,1.3l19.8-10.7c1.9-1,2.4-3.4,1.1-5.1l-13.4-17.5c-1-1.3-2.8-1.7-4.3-1
			c-3.6,1.8-10.4,5.7-17.3,11.3C311.7,74.6,311.3,76.5,312.2,78z"/>
		<path class="st2" d="M326.4,107.5l1.7,15.8c0.3,2.6,2.5,4.6,5.2,4.6h34.2c3.1,0,5.5-2.7,5.2-5.8c-0.7-6.8-2.6-18.2-7.3-26
			c-1.2-2-3.6-3-5.8-2.3l-29.3,8C327.7,102.6,326.1,105,326.4,107.5z"/>
		<path class="st1" d="M342.4,134.5h33.4c2.8,0,5.1,2.3,5.1,5.1v10.7c0,2.8-2.3,5.1-5.1,5.1h-33.4c-2.8,0-5.1-2.3-5.1-5.1v-10.8
			C337.3,136.7,339.6,134.5,342.4,134.5z"/>
	</g>
	<path class="st3" d="M307.1,126.5c-0.8,1.5-1.9,2.7-3.2,3.4l-2.9,1.6l0.1-4.1c0.1-4.2-0.4-8.4-1.5-12.4c-1,4.1-2.7,8-5,11.1
		l-4.1,5.7l0.6-7.8c0.4-5.5-0.7-11.1-3.1-15.6c-1,2.9-2.2,5.2-3.6,6.9c-3,3.6-7.2,4.5-10.4,2.4c-1.7-1.1-3.1-3-4.3-5.9
		c-3.4-7.6-3.9-17.4-1.5-25.7c-1.7,1.1-3.2,2.4-4.6,4c-0.7,0.8-1.4,1.7-1.7,2.7s-0.3,2.3-0.3,3.7c0,0.6,0,1.1,0,1.7
		c-0.2,8.3-4.5,16.2-10.5,19l-3.5,1.7l0.9-4.8c0.6-3.3-0.1-7-1.9-9.5c-1.3-1.9-3.3-3.1-5.3-3.3c-0.1,7.8-2.9,15.7-7.6,20.6l-2.9,3.1
		l-0.3-4.9c-0.5-7.3-5-14-10.3-15.8c0.3,5-0.9,10.2-3.2,14.1c-2.9,5-7.7,8-12.5,7.9l-2-0.1v-2.6c0-6.4-1-11.7-3-15.9
		c-1.9-4-4.8-6.8-7.9-7.7c-1.6,7.6-5.6,14.2-10.9,17.9l-3.3,2.3l0.4-4.9c0.4-4.8-0.8-9.8-3-13.6c-1.5,3.7-4.1,6.6-6.4,9.2
		c-0.4,0.4-0.8,0.9-1.2,1.3c-1.8,2-5.8,7.3-4.6,12.2l1.5,6.3l-4.4-3.2c-1.9-1.4-3.3-3.6-4-6.2c-2.4,5-3.7,10.8-3.7,16.8
		c0,6.6,1.6,13.2,4.5,18.5h154.1C311.7,146.5,310.5,135.8,307.1,126.5z"/>
</g>
</svg>
