<?xml version="1.0" encoding="utf-8"?>
<!-- Generator: Adobe Illustrator 24.0.1, SVG Export Plug-In . SVG Version: 6.00 Build 0)  -->
<svg version="1.1" id="Layer_1" xmlns="http://www.w3.org/2000/svg" xmlns:xlink="http://www.w3.org/1999/xlink" x="0px" y="0px"
	 viewBox="0 0 460.3 237.5" style="enable-background:new 0 0 460.3 237.5;" xml:space="preserve">
<style type="text/css">
	.st0{fill:#FFFFFF;}
	.st1{fill:#8A5D3B;}
	.st2{fill:url(#SVGID_1_);}
	.st3{fill:url(#SVGID_2_);}
	.st4{fill:url(#SVGID_3_);}
	.st5{fill:url(#SVGID_4_);}
	.st6{fill:url(#SVGID_5_);}
	.st7{fill:#FE6E01;}
	.st8{fill:#B50102;}
</style>
<g>
	<g>
		<path class="st0" d="M0,225v-42h13.8c5.2,0,8.6,0.2,10.2,0.6c2.4,0.6,4.5,2,6.1,4.1s2.5,4.8,2.5,8.2c0,2.6-0.5,4.7-1.4,6.5
			s-2.2,3.1-3.6,4.1c-1.5,1-2.9,1.7-4.5,2c-2,0.4-5,0.6-8.9,0.6H8.6v15.8L0,225L0,225z M8.6,190.1V202h4.7c3.4,0,5.6-0.2,6.8-0.7
			c1.1-0.4,2-1.1,2.7-2.1c0.6-0.9,1-2,1-3.3c0-1.5-0.5-2.8-1.4-3.8s-2.1-1.6-3.5-1.9c-1-0.2-3.1-0.3-6.2-0.3H8.6V190.1z"/>
		<path class="st0" d="M37.6,209.3c0-2.7,0.7-5.3,2-7.8s3.2-4.4,5.7-5.7c2.4-1.3,5.2-2,8.2-2c4.7,0,8.5,1.5,11.5,4.5
			s4.5,6.8,4.5,11.3c0,4.6-1.5,8.4-4.5,11.4s-6.8,4.5-11.4,4.5c-2.8,0-5.5-0.6-8.1-1.9s-4.5-3.1-5.8-5.5
			C38.3,215.8,37.6,212.8,37.6,209.3z M46,209.8c0,3,0.7,5.3,2.2,6.9c1.4,1.6,3.2,2.4,5.4,2.4c2.1,0,3.9-0.8,5.4-2.4
			c1.4-1.6,2.2-3.9,2.2-7c0-3-0.7-5.3-2.2-6.9c-1.4-1.6-3.2-2.4-5.4-2.4c-2.1,0-3.9,0.8-5.4,2.4S46,206.7,46,209.8z"/>
		<path class="st0" d="M72.9,216.3l8.2-1.2c0.3,1.6,1.1,2.8,2.1,3.6c1.1,0.8,2.6,1.2,4.5,1.2c2.1,0,3.7-0.4,4.8-1.1
			c0.7-0.5,1.1-1.3,1.1-2.1c0-0.6-0.2-1.1-0.6-1.5s-1.3-0.7-2.7-1.1c-6.6-1.4-10.7-2.7-12.5-3.9c-2.4-1.6-3.7-3.9-3.7-6.8
			c0-2.6,1.1-4.9,3.2-6.6c2.1-1.8,5.4-2.7,9.8-2.7c4.2,0,7.3,0.7,9.4,2c2,1.4,3.5,3.4,4.2,6l-7.7,1.4c-0.3-1.2-1-2.1-1.9-2.7
			s-2.2-0.9-3.9-0.9c-2.1,0-3.7,0.3-4.6,0.9c-0.6,0.4-0.9,1-0.9,1.6s0.3,1.1,0.8,1.5c0.7,0.5,3.3,1.3,7.6,2.3c4.3,1,7.4,2.2,9.1,3.6
			s2.6,3.4,2.6,6c0,2.8-1.2,5.2-3.5,7.2c-2.4,2-5.8,3-10.5,3c-4.2,0-7.5-0.8-10-2.5C75.3,221.5,73.7,219.2,72.9,216.3z"/>
		<path class="st0" d="M105.6,225v-6.3l11.5-13.1c1.9-2.1,3.3-3.7,4.2-4.6c-0.9,0.1-2.2,0.1-3.7,0.1l-10.9,0.1v-6.7h25.5v5.7
			l-11.8,13.4l-4.1,4.4c2.3-0.1,3.7-0.2,4.2-0.2h12.6v7.1h-27.5L105.6,225L105.6,225z"/>
		<path class="st0" d="M138.5,204.3v-21.4h8.1v14.5l4-3.3v5.4l-4,3.3v22h-8.1v-15.2l-4,3.3v-5.4L138.5,204.3z"/>
		<path class="st0" d="M153.1,209.3c0-2.7,0.7-5.3,2-7.8s3.2-4.4,5.7-5.7c2.4-1.3,5.2-2,8.2-2c4.7,0,8.5,1.5,11.5,4.5
			s4.5,6.8,4.5,11.3c0,4.6-1.5,8.4-4.5,11.4s-6.8,4.5-11.4,4.5c-2.8,0-5.5-0.6-8.1-1.9s-4.5-3.1-5.8-5.5
			C153.8,215.8,153.1,212.8,153.1,209.3z M161.5,209.8c0,3,0.7,5.3,2.2,6.9c1.4,1.6,3.2,2.4,5.4,2.4c2.1,0,3.9-0.8,5.4-2.4
			c1.4-1.6,2.2-3.9,2.2-7c0-3-0.7-5.3-2.2-6.9c-1.4-1.6-3.2-2.4-5.4-2.4c-2.1,0-3.9,0.8-5.4,2.4S161.5,206.7,161.5,209.8z"/>
		<path class="st0" d="M204.5,225v-6.3l11.5-13.1c1.9-2.1,3.3-3.7,4.2-4.6c-0.9,0.1-2.2,0.1-3.7,0.1l-10.9,0.1v-6.7h25.5v5.7
			l-11.8,13.4l-4.1,4.4c2.3-0.1,3.7-0.2,4.2-0.2H232v7.1h-27.5L204.5,225L204.5,225z"/>
		<path class="st0" d="M254,183h15.7c3.5,0,6.2,0.3,8.1,0.8c2.5,0.7,4.6,2,6.4,3.9c1.8,1.9,3.1,4.1,4.1,6.8c0.9,2.7,1.4,6,1.4,9.9
			c0,3.5-0.4,6.4-1.3,8.9c-1.1,3.1-2.6,5.5-4.6,7.4c-1.5,1.4-3.5,2.5-6,3.4c-1.9,0.6-4.4,0.9-7.6,0.9H254L254,183L254,183z
			 M262.6,190.1v27.8h6.4c2.4,0,4.1-0.1,5.2-0.4c1.4-0.3,2.5-0.9,3.5-1.7c0.9-0.8,1.7-2.2,2.2-4.1c0.6-1.9,0.9-4.4,0.9-7.7
			c0-3.2-0.3-5.7-0.9-7.5c-0.6-1.7-1.4-3.1-2.4-4.1s-2.4-1.6-4-2c-1.2-0.3-3.5-0.4-7-0.4h-3.9V190.1z"/>
		<path class="st0" d="M293,194.6h8.7l7.4,21.6l7.2-21.6h8.4l-10.9,29.3l-1.9,5.3c-0.7,1.8-1.4,3.1-2,4.1c-0.6,0.9-1.4,1.7-2.2,2.3
			s-1.9,1-3.1,1.4c-1.2,0.3-2.6,0.5-4.2,0.5c-1.6,0-3.1-0.2-4.6-0.5l-0.7-6.3c1.3,0.2,2.4,0.4,3.5,0.4c1.9,0,3.3-0.5,4.2-1.6
			s1.6-2.5,2.1-4.2L293,194.6z"/>
		<path class="st0" d="M329.3,194.6h7.5v4.2c2.7-3.2,5.9-4.8,9.6-4.8c2,0,3.7,0.4,5.1,1.2c1.4,0.8,2.6,2,3.6,3.6
			c1.4-1.6,2.8-2.8,4.4-3.6c1.6-0.8,3.2-1.2,5-1.2c2.3,0,4.2,0.5,5.7,1.4c1.6,0.9,2.7,2.2,3.5,4c0.6,1.3,0.8,3.4,0.8,6.3v19.4h-8.1
			v-17.4c0-3-0.3-5-0.8-5.8c-0.8-1.1-1.9-1.7-3.5-1.7c-1.1,0-2.2,0.3-3.2,1s-1.7,1.7-2.2,3c-0.4,1.3-0.7,3.4-0.7,6.3v14.6h-8.1
			v-16.8c0-3-0.1-4.9-0.4-5.7c-0.3-0.9-0.7-1.5-1.3-1.9s-1.4-0.6-2.5-0.6c-1.3,0-2.4,0.3-3.4,1s-1.7,1.6-2.2,2.9
			c-0.4,1.3-0.7,3.4-0.7,6.3v14.8h-8.1L329.3,194.6L329.3,194.6z"/>
		<path class="st0" d="M400.5,215.3l8.1,1.3c-1,2.9-2.7,5.2-4.9,6.7c-2.3,1.5-5.1,2.3-8.5,2.3c-5.4,0-9.3-1.7-11.9-5.2
			c-2-2.8-3-6.3-3-10.5c0-5,1.3-9,4-11.8c2.7-2.9,6-4.3,10.1-4.3c4.6,0,8.2,1.5,10.8,4.5s3.9,7.6,3.8,13.7h-20.4
			c0.1,2.4,0.7,4.2,2,5.6c1.3,1.3,2.8,2,4.7,2c1.3,0,2.3-0.3,3.2-1C399.4,217.9,400.1,216.8,400.5,215.3z M401,207.2
			c-0.1-2.3-0.7-4.1-1.8-5.3c-1.2-1.2-2.6-1.8-4.2-1.8c-1.8,0-3.2,0.6-4.4,1.9s-1.7,3-1.7,5.2L401,207.2L401,207.2z"/>
		<path class="st0" d="M415.1,194.6h7.5v4.2c2.7-3.2,5.9-4.8,9.6-4.8c2,0,3.7,0.4,5.1,1.2c1.4,0.8,2.6,2,3.6,3.6
			c1.4-1.6,2.8-2.8,4.4-3.6c1.6-0.8,3.2-1.2,5-1.2c2.3,0,4.2,0.5,5.7,1.4c1.6,0.9,2.7,2.2,3.5,4c0.6,1.3,0.8,3.4,0.8,6.3v19.4h-8.1
			v-17.4c0-3-0.3-5-0.8-5.8c-0.8-1.1-1.9-1.7-3.5-1.7c-1.1,0-2.2,0.3-3.2,1s-1.7,1.7-2.2,3c-0.4,1.3-0.7,3.4-0.7,6.3v14.6h-8.1
			v-16.8c0-3-0.1-4.9-0.4-5.7c-0.3-0.9-0.7-1.5-1.3-1.9s-1.4-0.6-2.5-0.6c-1.3,0-2.4,0.3-3.4,1s-1.7,1.6-2.2,2.9
			c-0.4,1.3-0.7,3.4-0.7,6.3v14.8h-8.1L415.1,194.6L415.1,194.6z"/>
	</g>
	<g>
		<path class="st1" d="M218.9,151.9c0,0-6.6-1-11.8-9l-4.7-1.2c-1.6-0.4-3.3,0-4.4,1.1c-1.2,1.2-2.4,3.1-2.6,6.3
			c0,0-0.4,3.9,2.7,4.8l7.3,2L218.9,151.9z"/>
		<g>
			
				<linearGradient id="SVGID_1_" gradientUnits="userSpaceOnUse" x1="201.4" y1="554.1" x2="254.1063" y2="554.1" gradientTransform="matrix(1 0 0 1 0 -438)">
				<stop  offset="0" style="stop-color:#FFF23A"/>
				<stop  offset="1.375882e-02" style="stop-color:#FDE338"/>
				<stop  offset="5.590672e-02" style="stop-color:#F9B933"/>
				<stop  offset="9.899844e-02" style="stop-color:#F6972F"/>
				<stop  offset="0.1426" style="stop-color:#F37C2C"/>
				<stop  offset="0.1869" style="stop-color:#F1692A"/>
				<stop  offset="0.2324" style="stop-color:#F05E28"/>
				<stop  offset="0.2809" style="stop-color:#F05A28"/>
				<stop  offset="0.7005" style="stop-color:#EE4036"/>
				<stop  offset="1" style="stop-color:#E83E39"/>
			</linearGradient>
			<path class="st2" d="M236.6,80.6c0,0-18.4,7.4-19.4,32.8c0,0-6.1-5.7-6.6-11.9c0,0-8.2,9.5-2.9,27.6c0,0-4.5,1.4-6.3-0.8
				c0,0,4.3,19.2,19.5,23.3l3.6-1.1c0,0-15.2-9.5-12-32.2c0,0,6.3,8.8,10.1,9.2c0,0-2.9-24.3,7.1-34.3c0,0-1,11.7,2.5,16.4
				c0.4,0.6,0.9,1.2,1.2,1.8c2.1,3.8,7.7,15.4,3.3,26.1c0,0,3.9-1.4,7.6-6.9c0,0,1.8,9.4-5.5,16l8.8-2.1c0,0,7.6-9.4,6.3-17.6
				c0,0-1,3.2-6.2,7.4c0,0,7.3-15.9-0.1-27c0,0,0.4,6.6-5.6,13.2l-3-6.5c-0.6-1.2-1.2-2.4-1.8-3.6
				C235.8,107.8,232.3,98.7,236.6,80.6z"/>
			
				<linearGradient id="SVGID_2_" gradientUnits="userSpaceOnUse" x1="211.7883" y1="521.8" x2="218.9042" y2="521.8" gradientTransform="matrix(1 0 0 1 0 -438)">
				<stop  offset="0" style="stop-color:#FFF23A"/>
				<stop  offset="1.375882e-02" style="stop-color:#FDE338"/>
				<stop  offset="5.590672e-02" style="stop-color:#F9B933"/>
				<stop  offset="9.899844e-02" style="stop-color:#F6972F"/>
				<stop  offset="0.1426" style="stop-color:#F37C2C"/>
				<stop  offset="0.1869" style="stop-color:#F1692A"/>
				<stop  offset="0.2324" style="stop-color:#F05E28"/>
				<stop  offset="0.2809" style="stop-color:#F05A28"/>
				<stop  offset="0.7005" style="stop-color:#EE4036"/>
				<stop  offset="1" style="stop-color:#E83E39"/>
			</linearGradient>
			<path class="st3" d="M215.6,73.4c0,0-0.1,2.6-2.5,7.3c-1.4,2.7-1.7,5.9-0.8,8.9c0.6,1.7,1.5,3.4,3.2,4.6c0,0,1-6.3,2.5-10
				c1-2.5,1.1-5.3-0.1-7.7C217.5,75.5,216.7,74.4,215.6,73.4z"/>
			
				<linearGradient id="SVGID_3_" gradientUnits="userSpaceOnUse" x1="241.5175" y1="534.3" x2="245.8242" y2="534.3" gradientTransform="matrix(1 0 0 1 0 -438)">
				<stop  offset="0" style="stop-color:#FFF23A"/>
				<stop  offset="1.375882e-02" style="stop-color:#FDE338"/>
				<stop  offset="5.590672e-02" style="stop-color:#F9B933"/>
				<stop  offset="9.899844e-02" style="stop-color:#F6972F"/>
				<stop  offset="0.1426" style="stop-color:#F37C2C"/>
				<stop  offset="0.1869" style="stop-color:#F1692A"/>
				<stop  offset="0.2324" style="stop-color:#F05E28"/>
				<stop  offset="0.2809" style="stop-color:#F05A28"/>
				<stop  offset="0.7005" style="stop-color:#EE4036"/>
				<stop  offset="1" style="stop-color:#E83E39"/>
			</linearGradient>
			<path class="st4" d="M243.8,90c0,0-0.1,1.6-1.5,4.4c-0.8,1.7-1,3.6-0.5,5.4c0.3,1,0.9,2.1,2,2.8c0,0,0.6-3.8,1.5-6
				c0.6-1.5,0.7-3.2,0-4.7C245,91.3,244.5,90.6,243.8,90z"/>
			
				<linearGradient id="SVGID_4_" gradientUnits="userSpaceOnUse" x1="218.9" y1="571.4" x2="238.4" y2="571.4" gradientTransform="matrix(1 0 0 1 0 -438)">
				<stop  offset="0" style="stop-color:#FFF23A"/>
				<stop  offset="1.375882e-02" style="stop-color:#FDE338"/>
				<stop  offset="5.590672e-02" style="stop-color:#F9B933"/>
				<stop  offset="9.899844e-02" style="stop-color:#F6972F"/>
				<stop  offset="0.1426" style="stop-color:#F37C2C"/>
				<stop  offset="0.1869" style="stop-color:#F1692A"/>
				<stop  offset="0.2324" style="stop-color:#F05E28"/>
				<stop  offset="0.2809" style="stop-color:#F05A28"/>
				<stop  offset="0.7005" style="stop-color:#EE4036"/>
				<stop  offset="1" style="stop-color:#E83E39"/>
			</linearGradient>
			<path class="st5" d="M228.1,149.6c0,0-7.5-6.5-9.2-16.9c0,0,4,5.7,9.7,5.1c0,0-4.6-9.3,0-20.6c0,0,3.7,4.1,3.4,11.2
				c0,0-1.6,20.6,6.4,11.7c0,0-0.9,3-3.3,5.8c-1.3,1.5-3,2.6-4.9,3.2L228.1,149.6z"/>
			
				<linearGradient id="SVGID_5_" gradientUnits="userSpaceOnUse" x1="222.2434" y1="586.5" x2="226.5271" y2="586.5" gradientTransform="matrix(1 0 0 1 0 -438)">
				<stop  offset="0" style="stop-color:#FFF23A"/>
				<stop  offset="1.375882e-02" style="stop-color:#FDE338"/>
				<stop  offset="5.590672e-02" style="stop-color:#F9B933"/>
				<stop  offset="9.899844e-02" style="stop-color:#F6972F"/>
				<stop  offset="0.1426" style="stop-color:#F37C2C"/>
				<stop  offset="0.1869" style="stop-color:#F1692A"/>
				<stop  offset="0.2324" style="stop-color:#F05E28"/>
				<stop  offset="0.2809" style="stop-color:#F05A28"/>
				<stop  offset="0.7005" style="stop-color:#EE4036"/>
				<stop  offset="1" style="stop-color:#E83E39"/>
			</linearGradient>
			<polygon class="st6" points="222.2,147 224.5,147.6 226.5,150 225.5,150 			"/>
		</g>
		<path class="st1" d="M268,152.7c0.5-0.8,1-2.5,0.6-5.7c0,0-0.5-3.7-3.2-5.2c-0.6-0.4-1.4-0.5-2.2-0.3l-65.8,17.6
			c-0.7,0.2-1.2,0.7-1.5,1.3c-0.5,1.3-1.2,3.6-0.2,6.7c0,0,0.9,3,3.2,4c0.6,0.3,1.3,0.3,1.9,0.1l65.9-17.6
			C267.3,153.5,267.8,153.2,268,152.7z M200.6,170.1c-1.3,0.4-3-1.5-3.9-4.3c-0.8-2.8-0.5-5.3,0.8-5.7c1.3-0.4,3,1.5,3.9,4.3
			C202.3,167.1,201.9,169.7,200.6,170.1z"/>
		<path class="st1" d="M260,157.3l-25.3,6.5l28.2,7.7c0,0,3.8,0.2,5.5-4.8c0,0,1.3-4.1-0.9-7.1L260,157.3z M267.7,165.9
			c-0.7,2.8-2.5,4.7-4.1,4.4c-1.6-0.4-2.4-2.9-1.7-5.7c0.7-2.8,2.5-4.7,4.1-4.4C267.6,160.5,268.3,163.1,267.7,165.9z"/>
		<ellipse transform="matrix(0.9567 -0.291 0.291 0.9567 -39.4237 65.1096)" class="st1" cx="199.2" cy="165.1" rx="1" ry="2.7"/>
		
			<ellipse transform="matrix(0.2281 -0.9736 0.9736 0.2281 43.1832 385.2256)" class="st1" cx="264.5" cy="165.4" rx="3.1" ry="1.2"/>
	</g>
	<g>
		<path class="st7" d="M124.3,140.3v11.3c0,2.8-2.3,5.1-5.1,5.1H85.8c-2.8,0-5.1-2.3-5.1-5.1V139c0-2.9,2.4-5.2,5.3-5.1l33.4,1.3
			C122.2,135.4,124.3,137.6,124.3,140.3z"/>
		<path class="st8" d="M129.3,128h-33c-3,0-5.3-2.5-5.1-5.4c0.5-9,2.8-26.4,13-28.9l30.8,9.9c2.7,0.9,4.3,3.8,3.5,6.5l-4.3,14.2
			C133.5,126.5,131.6,128,129.3,128z"/>
		<path class="st7" d="M113.9,79.3l11-14c1.9-2.4,5.4-2.9,7.9-1.1l13.1,9.7c1.9,1.4,2.4,4,1.3,6l-7.8,13.4c-1.5,2.5-4.7,3.4-7.2,1.9
			l-17.1-9.8C112.9,84.4,112.3,81.4,113.9,79.3z"/>
		<path class="st7" d="M173.3,23.9c4.6-3,13.4-8.2,22.8-10.9c2.6-0.7,5.3,0.5,6.5,2.8c1.8,3.6,4,10.3,4.6,22.4
			c0.1,2.5-1.4,4.7-3.7,5.5l-17.2,6c-2.5,0.9-5.2-0.1-6.6-2.4c-2.5-4.1-6.4-11-8.5-17C170.2,28,171.1,25.3,173.3,23.9z"/>
		<path class="st8" d="M137.5,47.6c3.4-4.9,10.4-13.4,19.3-17.9c2-1,4.5-0.6,6,1.1c2.7,2.9,7,8.5,10.8,18.2c0.9,2.2,0.4,4.7-1.1,6.4
			c-3.1,3.4-8.6,9.2-14,12.7c-2,1.3-4.6,1.2-6.5-0.2c-3.8-2.8-10.2-7.8-14.3-13C136,52.8,135.9,49.8,137.5,47.6z"/>
		<path class="st8" d="M215.1,0h34.6c3,0,5.2,2.7,4.6,5.6l-6.5,30.5c-0.5,2.2-2.4,3.7-4.6,3.7h-23c-2.3,0-4.2-1.6-4.6-3.9l-5.2-30.5
			C210.1,2.6,212.3,0,215.1,0z"/>
		<path class="st7" d="M266.4,13c5.9,1.4,16.1,4.5,22.7,10.4c1.5,1.4,1.9,3.6,1,5.4l-8.3,16.8c-1,2.1-3.4,3.1-5.6,2.3l-16.8-5.5
			c-2.3-0.7-3.6-3.1-3.1-5.4l4.5-20.5C261.5,14,263.9,12.4,266.4,13z"/>
		<path class="st8" d="M306.5,30.1c5.5,2.6,14.8,8.3,20,19c1.1,2.3,0.5,5.1-1.5,6.7l-13.6,11.1c-2.2,1.8-5.3,1.7-7.3-0.2l-13.7-12.4
			c-2.1-1.9-2.5-5-0.9-7.3l10-15.1C301,29.8,304,28.9,306.5,30.1z"/>
		<path class="st7" d="M314.6,78l10.3,17.2c0.9,1.6,3,2.1,4.6,1.3l19.8-10.7c1.9-1,2.4-3.4,1.1-5.1L337,63.2c-1-1.3-2.8-1.7-4.3-1
			c-3.6,1.8-10.4,5.7-17.3,11.3C314.1,74.6,313.7,76.5,314.6,78z"/>
		<path class="st8" d="M328.8,107.5l1.7,15.8c0.3,2.6,2.5,4.6,5.2,4.6h34.2c3.1,0,5.5-2.7,5.2-5.8c-0.7-6.8-2.6-18.2-7.3-26
			c-1.2-2-3.6-3-5.8-2.3l-29.3,8C330.1,102.6,328.5,105,328.8,107.5z"/>
		<path class="st7" d="M344.8,134.5h33.4c2.8,0,5.1,2.3,5.1,5.1v10.7c0,2.8-2.3,5.1-5.1,5.1h-33.4c-2.8,0-5.1-2.3-5.1-5.1v-10.8
			C339.7,136.7,342,134.5,344.8,134.5z"/>
	</g>
</g>
</svg>
