<?xml version="1.0" encoding="utf-8"?>
<!-- Generator: Adobe Illustrator 24.0.1, SVG Export Plug-In . SVG Version: 6.00 Build 0)  -->
<svg version="1.1" id="Layer_1" xmlns="http://www.w3.org/2000/svg" xmlns:xlink="http://www.w3.org/1999/xlink" x="0px" y="0px"
	 viewBox="0 0 463.8 274.5" style="enable-background:new 0 0 463.8 274.5;" xml:space="preserve">
<style type="text/css">
	.st0{fill:#402312;}
	.st1{fill:#099319;}
	.st2{fill:#8A5D3B;}
	.st3{fill:url(#SVGID_1_);}
	.st4{fill:url(#SVGID_2_);}
	.st5{fill:url(#SVGID_3_);}
	.st6{fill:url(#SVGID_4_);}
	.st7{fill:url(#SVGID_5_);}
	.st8{fill:#FE6E01;}
	.st9{fill:#B50102;}
</style>
<g>
	<g>
		<rect y="241.9" class="st0" width="463.8" height="7"/>
	</g>
	<g>
		<path class="st1" d="M1.7,225v-42h13.8c5.2,0,8.6,0.2,10.2,0.6c2.4,0.6,4.5,2,6.1,4.1s2.5,4.8,2.5,8.2c0,2.6-0.5,4.7-1.4,6.5
			s-2.2,3.1-3.6,4.1c-1.5,1-2.9,1.7-4.5,2c-2,0.4-5,0.6-8.9,0.6h-5.6v15.8L1.7,225L1.7,225z M10.3,190.1V202H15
			c3.4,0,5.6-0.2,6.8-0.7c1.1-0.4,2-1.1,2.7-2.1c0.6-0.9,1-2,1-3.3c0-1.5-0.5-2.8-1.4-3.8s-2.1-1.6-3.5-1.9c-1-0.2-3.1-0.3-6.2-0.3
			h-4.1V190.1z"/>
		<path class="st1" d="M39.3,209.3c0-2.7,0.7-5.3,2-7.8s3.2-4.4,5.7-5.7c2.4-1.3,5.2-2,8.2-2c4.7,0,8.5,1.5,11.5,4.5
			s4.5,6.8,4.5,11.3c0,4.6-1.5,8.4-4.5,11.4s-6.8,4.5-11.4,4.5c-2.8,0-5.5-0.6-8.1-1.9s-4.5-3.1-5.8-5.5
			C40,215.8,39.3,212.8,39.3,209.3z M47.7,209.8c0,3,0.7,5.3,2.2,6.9c1.4,1.6,3.2,2.4,5.4,2.4c2.1,0,3.9-0.8,5.4-2.4
			c1.4-1.6,2.2-3.9,2.2-7c0-3-0.7-5.3-2.2-6.9c-1.4-1.6-3.2-2.4-5.4-2.4c-2.1,0-3.9,0.8-5.4,2.4S47.7,206.7,47.7,209.8z"/>
		<path class="st1" d="M74.6,216.3l8.2-1.2c0.3,1.6,1.1,2.8,2.1,3.6c1.1,0.8,2.6,1.2,4.5,1.2c2.1,0,3.7-0.4,4.8-1.1
			c0.7-0.5,1.1-1.3,1.1-2.1c0-0.6-0.2-1.1-0.6-1.5s-1.3-0.7-2.7-1.1c-6.6-1.4-10.7-2.7-12.5-3.9c-2.4-1.6-3.7-3.9-3.7-6.8
			c0-2.6,1.1-4.9,3.2-6.6c2.1-1.8,5.4-2.7,9.8-2.7c4.2,0,7.3,0.7,9.4,2c2,1.4,3.5,3.4,4.2,6l-7.7,1.4c-0.3-1.2-1-2.1-1.9-2.7
			s-2.2-0.9-3.9-0.9c-2.1,0-3.7,0.3-4.6,0.9c-0.6,0.4-0.9,1-0.9,1.6s0.3,1.1,0.8,1.5c0.7,0.5,3.3,1.3,7.6,2.3c4.3,1,7.4,2.2,9.1,3.6
			s2.6,3.4,2.6,6c0,2.8-1.2,5.2-3.5,7.2c-2.4,2-5.8,3-10.5,3c-4.2,0-7.5-0.8-10-2.5C77,221.5,75.4,219.2,74.6,216.3z"/>
		<path class="st1" d="M107.3,225v-6.3l11.5-13.1c1.9-2.1,3.3-3.7,4.2-4.6c-0.9,0.1-2.2,0.1-3.7,0.1l-10.9,0.1v-6.7h25.5v5.7
			l-11.8,13.4L118,218c2.3-0.1,3.7-0.2,4.2-0.2h12.6v7.1h-27.5V225z"/>
		<path class="st1" d="M140.2,204.3v-21.4h8.1v14.5l4-3.3v5.4l-4,3.3v22h-8.1v-15.2l-4,3.3v-5.4L140.2,204.3z"/>
		<path class="st1" d="M154.8,209.3c0-2.7,0.7-5.3,2-7.8s3.2-4.4,5.7-5.7c2.4-1.3,5.2-2,8.2-2c4.7,0,8.5,1.5,11.5,4.5
			s4.5,6.8,4.5,11.3c0,4.6-1.5,8.4-4.5,11.4s-6.8,4.5-11.4,4.5c-2.8,0-5.5-0.6-8.1-1.9s-4.5-3.1-5.8-5.5
			C155.5,215.8,154.8,212.8,154.8,209.3z M163.2,209.8c0,3,0.7,5.3,2.2,6.9c1.4,1.6,3.2,2.4,5.4,2.4c2.1,0,3.9-0.8,5.4-2.4
			c1.4-1.6,2.2-3.9,2.2-7c0-3-0.7-5.3-2.2-6.9c-1.4-1.6-3.2-2.4-5.4-2.4c-2.1,0-3.9,0.8-5.4,2.4S163.2,206.7,163.2,209.8z"/>
		<path class="st1" d="M206.2,225v-6.3l11.5-13.1c1.9-2.1,3.3-3.7,4.2-4.6c-0.9,0.1-2.2,0.1-3.7,0.1l-10.9,0.1v-6.7h25.5v5.7
			L221,213.6l-4.1,4.4c2.3-0.1,3.7-0.2,4.2-0.2h12.6v7.1h-27.5V225z"/>
		<path class="st1" d="M255.7,183h15.7c3.5,0,6.2,0.3,8.1,0.8c2.5,0.7,4.6,2,6.4,3.9c1.8,1.9,3.1,4.1,4.1,6.8c0.9,2.7,1.4,6,1.4,9.9
			c0,3.5-0.4,6.4-1.3,8.9c-1.1,3.1-2.6,5.5-4.6,7.4c-1.5,1.4-3.5,2.5-6,3.4c-1.9,0.6-4.4,0.9-7.6,0.9h-16.2L255.7,183L255.7,183z
			 M264.3,190.1v27.8h6.4c2.4,0,4.1-0.1,5.2-0.4c1.4-0.3,2.5-0.9,3.5-1.7c0.9-0.8,1.7-2.2,2.2-4.1c0.6-1.9,0.9-4.4,0.9-7.7
			c0-3.2-0.3-5.7-0.9-7.5c-0.6-1.7-1.4-3.1-2.4-4.1s-2.4-1.6-4-2c-1.2-0.3-3.5-0.4-7-0.4h-3.9V190.1z"/>
		<path class="st1" d="M294.7,194.6h8.7l7.4,21.6l7.2-21.6h8.4l-10.9,29.3l-1.9,5.3c-0.7,1.8-1.4,3.1-2,4.1
			c-0.6,0.9-1.4,1.7-2.2,2.3s-1.9,1-3.1,1.4c-1.2,0.3-2.6,0.5-4.2,0.5c-1.6,0-3.1-0.2-4.6-0.5l-0.7-6.3c1.3,0.2,2.4,0.4,3.5,0.4
			c1.9,0,3.3-0.5,4.2-1.6s1.6-2.5,2.1-4.2L294.7,194.6z"/>
		<path class="st1" d="M331,194.6h7.5v4.2c2.7-3.2,5.9-4.8,9.6-4.8c2,0,3.7,0.4,5.1,1.2c1.4,0.8,2.6,2,3.6,3.6
			c1.4-1.6,2.8-2.8,4.4-3.6c1.6-0.8,3.2-1.2,5-1.2c2.3,0,4.2,0.5,5.7,1.4c1.6,0.9,2.7,2.2,3.5,4c0.6,1.3,0.8,3.4,0.8,6.3v19.4h-8.1
			v-17.4c0-3-0.3-5-0.8-5.8c-0.8-1.1-1.9-1.7-3.5-1.7c-1.1,0-2.2,0.3-3.2,1s-1.7,1.7-2.2,3c-0.4,1.3-0.7,3.4-0.7,6.3v14.6h-8.1
			v-16.8c0-3-0.1-4.9-0.4-5.7c-0.3-0.9-0.7-1.5-1.3-1.9s-1.4-0.6-2.5-0.6c-1.3,0-2.4,0.3-3.4,1s-1.7,1.6-2.2,2.9
			c-0.4,1.3-0.7,3.4-0.7,6.3v14.8H331L331,194.6L331,194.6z"/>
		<path class="st1" d="M402.2,215.3l8.1,1.3c-1,2.9-2.7,5.2-4.9,6.7c-2.3,1.5-5.1,2.3-8.5,2.3c-5.4,0-9.3-1.7-11.9-5.2
			c-2-2.8-3-6.3-3-10.5c0-5,1.3-9,4-11.8c2.7-2.9,6-4.3,10.1-4.3c4.6,0,8.2,1.5,10.8,4.5s3.9,7.6,3.8,13.7h-20.4
			c0.1,2.4,0.7,4.2,2,5.6c1.3,1.3,2.8,2,4.7,2c1.3,0,2.3-0.3,3.2-1C401.1,217.9,401.8,216.8,402.2,215.3z M402.7,207.2
			c-0.1-2.3-0.7-4.1-1.8-5.3c-1.2-1.2-2.6-1.8-4.2-1.8c-1.8,0-3.2,0.6-4.4,1.9s-1.7,3-1.7,5.2L402.7,207.2L402.7,207.2z"/>
		<path class="st1" d="M416.8,194.6h7.5v4.2c2.7-3.2,5.9-4.8,9.6-4.8c2,0,3.7,0.4,5.1,1.2c1.4,0.8,2.6,2,3.6,3.6
			c1.4-1.6,2.8-2.8,4.4-3.6c1.6-0.8,3.2-1.2,5-1.2c2.3,0,4.2,0.5,5.7,1.4c1.6,0.9,2.7,2.2,3.5,4c0.6,1.3,0.8,3.4,0.8,6.3v19.4h-8.1
			v-17.4c0-3-0.3-5-0.8-5.8c-0.8-1.1-1.9-1.7-3.5-1.7c-1.1,0-2.2,0.3-3.2,1s-1.7,1.7-2.2,3c-0.4,1.3-0.7,3.4-0.7,6.3v14.6h-8.1
			v-16.8c0-3-0.1-4.9-0.4-5.7c-0.3-0.9-0.7-1.5-1.3-1.9s-1.4-0.6-2.5-0.6c-1.3,0-2.4,0.3-3.4,1s-1.7,1.6-2.2,2.9
			c-0.4,1.3-0.7,3.4-0.7,6.3v14.8h-8.1L416.8,194.6L416.8,194.6z"/>
	</g>
	<g>
		<path class="st0" d="M1.7,260.6h2.5v1.5c0.3-0.5,0.8-0.9,1.3-1.2c0.5-0.3,1.2-0.5,1.8-0.5c1.2,0,2.2,0.5,3,1.4
			c0.8,0.9,1.2,2.2,1.2,3.8c0,1.7-0.4,3-1.2,3.9c-0.8,0.9-1.8,1.4-3,1.4c-0.6,0-1.1-0.1-1.5-0.3c-0.4-0.2-0.9-0.6-1.4-1.1v5H1.7
			L1.7,260.6L1.7,260.6z M4.3,265.4c0,1.1,0.2,2,0.7,2.5c0.4,0.5,1,0.8,1.6,0.8s1.1-0.2,1.5-0.7c0.4-0.5,0.6-1.3,0.6-2.4
			c0-1.1-0.2-1.8-0.6-2.3s-0.9-0.8-1.6-0.8c-0.6,0-1.2,0.3-1.6,0.7C4.5,263.7,4.3,264.4,4.3,265.4z"/>
		<path class="st0" d="M32.9,263.6l-2.4-0.4c0.3-1,0.7-1.7,1.4-2.2c0.7-0.5,1.6-0.7,2.9-0.7c1.2,0,2.1,0.1,2.6,0.4
			c0.6,0.3,1,0.6,1.2,1.1c0.2,0.4,0.4,1.2,0.4,2.4v3.1c0,0.9,0,1.5,0.1,1.9c0.1,0.4,0.2,0.9,0.5,1.3H37c-0.1-0.2-0.2-0.4-0.3-0.8
			c0-0.2-0.1-0.3-0.1-0.3c-0.5,0.4-0.9,0.8-1.5,1c-0.5,0.2-1.1,0.3-1.7,0.3c-1,0-1.8-0.3-2.4-0.8c-0.6-0.6-0.9-1.3-0.9-2.1
			c0-0.6,0.1-1.1,0.4-1.5c0.3-0.4,0.6-0.8,1.1-1s1.2-0.4,2.1-0.6c1.2-0.2,2.1-0.4,2.6-0.7v-0.3c0-0.5-0.1-0.9-0.4-1.1
			s-0.7-0.3-1.4-0.3c-0.5,0-0.8,0.1-1.1,0.3C33.3,262.8,33.1,263.2,32.9,263.6z M36.5,265.8c-0.3,0.1-0.9,0.2-1.6,0.4
			c-0.7,0.2-1.2,0.3-1.4,0.5c-0.3,0.2-0.5,0.6-0.5,0.9c0,0.4,0.1,0.7,0.4,1s0.6,0.4,1.1,0.4s0.9-0.2,1.4-0.5
			c0.3-0.2,0.5-0.5,0.6-0.9c0.1-0.2,0.1-0.7,0.1-1.3v-0.5H36.5z"/>
		<path class="st0" d="M58.1,267.7l2.7-0.4c0.1,0.5,0.3,0.9,0.7,1.2c0.3,0.3,0.8,0.4,1.5,0.4s1.2-0.1,1.5-0.4
			c0.2-0.2,0.3-0.4,0.3-0.7c0-0.2-0.1-0.4-0.2-0.5c-0.1-0.1-0.4-0.2-0.9-0.3c-2.1-0.5-3.5-0.9-4.1-1.3c-0.8-0.5-1.2-1.3-1.2-2.3
			c0-0.9,0.3-1.6,1-2.2c0.7-0.6,1.7-0.9,3.2-0.9c1.4,0,2.4,0.2,3.1,0.7c0.7,0.4,1.1,1.1,1.4,2l-2.5,0.5c-0.1-0.4-0.3-0.7-0.6-0.9
			c-0.3-0.2-0.7-0.3-1.3-0.3c-0.7,0-1.2,0.1-1.5,0.3c-0.2,0.1-0.3,0.3-0.3,0.5s0.1,0.3,0.3,0.5c0.2,0.2,1.1,0.4,2.5,0.7
			c1.4,0.3,2.4,0.7,3,1.2s0.8,1.1,0.8,2c0,0.9-0.4,1.7-1.2,2.4c-0.8,0.7-1.9,1-3.4,1c-1.4,0-2.4-0.3-3.2-0.8
			C58.9,269.4,58.4,268.7,58.1,267.7z"/>
		<path class="st0" d="M91.8,260.6v2.1H90v4c0,0.8,0,1.3,0.1,1.4c0,0.1,0.1,0.2,0.2,0.3c0.1,0.1,0.3,0.1,0.4,0.1
			c0.2,0,0.6-0.1,1.1-0.3l0.2,2.1c-0.6,0.3-1.3,0.4-2.1,0.4c-0.5,0-0.9-0.1-1.3-0.2c-0.4-0.2-0.7-0.4-0.8-0.6
			c-0.2-0.3-0.3-0.6-0.4-1c-0.1-0.3-0.1-0.9-0.1-1.9v-4.4h-1.2v-2.1h1.2v-2L90,257v3.5L91.8,260.6L91.8,260.6z"/>
		<path class="st0" d="M113,263.6l-2.4-0.4c0.3-1,0.7-1.7,1.4-2.2c0.7-0.5,1.6-0.7,2.9-0.7c1.2,0,2.1,0.1,2.6,0.4
			c0.6,0.3,1,0.6,1.2,1.1c0.2,0.4,0.4,1.2,0.4,2.4v3.1c0,0.9,0,1.5,0.1,1.9c0.1,0.4,0.2,0.9,0.5,1.3h-2.6c-0.1-0.2-0.2-0.4-0.3-0.8
			c0-0.2-0.1-0.3-0.1-0.3c-0.5,0.4-0.9,0.8-1.5,1c-0.5,0.2-1.1,0.3-1.7,0.3c-1,0-1.8-0.3-2.4-0.8c-0.6-0.6-0.9-1.3-0.9-2.1
			c0-0.6,0.1-1.1,0.4-1.5c0.3-0.4,0.6-0.8,1.1-1s1.2-0.4,2.1-0.6c1.2-0.2,2.1-0.4,2.6-0.7v-0.3c0-0.5-0.1-0.9-0.4-1.1
			s-0.7-0.3-1.4-0.3c-0.5,0-0.8,0.1-1.1,0.3C113.4,262.8,113.2,263.2,113,263.6z M116.6,265.8c-0.3,0.1-0.9,0.2-1.6,0.4
			s-1.2,0.3-1.4,0.5c-0.3,0.2-0.5,0.6-0.5,0.9c0,0.4,0.1,0.7,0.4,1s0.6,0.4,1.1,0.4s0.9-0.2,1.4-0.5c0.3-0.2,0.5-0.5,0.6-0.9
			c0.1-0.2,0.1-0.7,0.1-1.3v-0.5H116.6z"/>
		<path class="st0" d="M138.9,266.9v-2.6h5.2v2.7L138.9,266.9L138.9,266.9z"/>
		<path class="st0" d="M162.9,260.6h2.5v1.5c0.3-0.5,0.8-0.9,1.3-1.2c0.5-0.3,1.2-0.5,1.8-0.5c1.2,0,2.2,0.5,3,1.4
			c0.8,0.9,1.2,2.2,1.2,3.8c0,1.7-0.4,3-1.2,3.9c-0.8,0.9-1.8,1.4-3,1.4c-0.6,0-1.1-0.1-1.5-0.3c-0.4-0.2-0.9-0.6-1.4-1.1v5h-2.7
			V260.6z M165.5,265.4c0,1.1,0.2,2,0.7,2.5c0.4,0.5,1,0.8,1.6,0.8s1.1-0.2,1.5-0.7s0.6-1.3,0.6-2.4c0-1.1-0.2-1.8-0.6-2.3
			s-0.9-0.8-1.6-0.8c-0.6,0-1.2,0.3-1.6,0.7C165.8,263.7,165.5,264.4,165.5,265.4z"/>
		<path class="st0" d="M192.2,259.2v-2.5h2.7v2.5H192.2z M192.2,270.6v-10h2.7v10H192.2z"/>
		<path class="st0" d="M213.9,270.6v-2.1l3.8-4.3c0.6-0.7,1.1-1.2,1.4-1.5c-0.3,0-0.7,0-1.2,0h-3.5v-2.2h8.3v1.9l-3.8,4.4l-1.3,1.5
			c0.7,0,1.2-0.1,1.4-0.1h4.1v2.3h-9.2V270.6z"/>
		<path class="st0" d="M240.9,270.6v-2.1l3.8-4.3c0.6-0.7,1.1-1.2,1.4-1.5c-0.3,0-0.7,0-1.2,0h-3.5v-2.2h8.3v1.9l-3.8,4.4l-1.3,1.5
			c0.7,0,1.2-0.1,1.4-0.1h4.1v2.3h-9.2V270.6z"/>
		<path class="st0" d="M271,263.6l-2.4-0.4c0.3-1,0.7-1.7,1.4-2.2s1.6-0.7,2.9-0.7c1.2,0,2.1,0.1,2.6,0.4c0.6,0.3,1,0.6,1.2,1.1
			c0.2,0.4,0.4,1.2,0.4,2.4v3.1c0,0.9,0,1.5,0.1,1.9c0.1,0.4,0.2,0.9,0.5,1.3h-2.6c-0.1-0.2-0.2-0.4-0.3-0.8c0-0.2-0.1-0.3-0.1-0.3
			c-0.5,0.4-0.9,0.8-1.5,1c-0.5,0.2-1.1,0.3-1.7,0.3c-1,0-1.8-0.3-2.4-0.8c-0.6-0.6-0.9-1.3-0.9-2.1c0-0.6,0.1-1.1,0.4-1.5
			c0.3-0.4,0.6-0.8,1.1-1s1.2-0.4,2.1-0.6c1.2-0.2,2.1-0.4,2.6-0.7v-0.3c0-0.5-0.1-0.9-0.4-1.1c-0.3-0.2-0.7-0.3-1.4-0.3
			c-0.5,0-0.8,0.1-1.1,0.3C271.4,262.8,271.2,263.2,271,263.6z M274.6,265.8c-0.3,0.1-0.9,0.2-1.6,0.4c-0.7,0.2-1.2,0.3-1.4,0.5
			c-0.3,0.2-0.5,0.6-0.5,0.9c0,0.4,0.1,0.7,0.4,1c0.3,0.3,0.6,0.4,1.1,0.4s0.9-0.2,1.4-0.5c0.3-0.2,0.5-0.5,0.6-0.9
			c0.1-0.2,0.1-0.7,0.1-1.3L274.6,265.8L274.6,265.8z"/>
		<path class="st0" d="M296.9,266.9v-2.6h5.2v2.7L296.9,266.9L296.9,266.9z"/>
		<path class="st0" d="M320.9,260.6h2.5v1.5c0.3-0.5,0.8-0.9,1.3-1.2c0.5-0.3,1.2-0.5,1.8-0.5c1.2,0,2.2,0.5,3,1.4
			c0.8,0.9,1.2,2.2,1.2,3.8c0,1.7-0.4,3-1.2,3.9c-0.8,0.9-1.8,1.4-3,1.4c-0.6,0-1.1-0.1-1.5-0.3c-0.4-0.2-0.9-0.6-1.4-1.1v5h-2.7
			V260.6z M323.6,265.4c0,1.1,0.2,2,0.7,2.5c0.4,0.5,1,0.8,1.6,0.8s1.1-0.2,1.5-0.7s0.6-1.3,0.6-2.4c0-1.1-0.2-1.8-0.6-2.3
			c-0.4-0.5-0.9-0.8-1.6-0.8c-0.6,0-1.2,0.3-1.6,0.7C323.8,263.7,323.6,264.4,323.6,265.4z"/>
		<path class="st0" d="M352.2,263.6l-2.4-0.4c0.3-1,0.7-1.7,1.4-2.2s1.6-0.7,2.9-0.7c1.2,0,2.1,0.1,2.6,0.4c0.6,0.3,1,0.6,1.2,1.1
			c0.2,0.4,0.4,1.2,0.4,2.4v3.1c0,0.9,0,1.5,0.1,1.9c0.1,0.4,0.2,0.9,0.5,1.3h-2.6c-0.1-0.2-0.2-0.4-0.3-0.8c0-0.2-0.1-0.3-0.1-0.3
			c-0.5,0.4-0.9,0.8-1.5,1c-0.5,0.2-1.1,0.3-1.7,0.3c-1,0-1.8-0.3-2.4-0.8c-0.6-0.6-0.9-1.3-0.9-2.1c0-0.6,0.1-1.1,0.4-1.5
			c0.3-0.4,0.6-0.8,1.1-1s1.2-0.4,2.1-0.6c1.2-0.2,2.1-0.4,2.6-0.7v-0.3c0-0.5-0.1-0.9-0.4-1.1c-0.3-0.2-0.7-0.3-1.4-0.3
			c-0.5,0-0.8,0.1-1.1,0.3C352.6,262.8,352.3,263.2,352.2,263.6z M355.7,265.8c-0.3,0.1-0.9,0.2-1.6,0.4c-0.7,0.2-1.2,0.3-1.4,0.5
			c-0.3,0.2-0.5,0.6-0.5,0.9c0,0.4,0.1,0.7,0.4,1c0.3,0.3,0.6,0.4,1.1,0.4s0.9-0.2,1.4-0.5c0.3-0.2,0.5-0.5,0.6-0.9
			c0.1-0.2,0.1-0.7,0.1-1.3L355.7,265.8L355.7,265.8z"/>
		<path class="st0" d="M387.4,270.6h-2.7v-5.1c0-1.1-0.1-1.8-0.2-2.1c-0.1-0.3-0.3-0.6-0.6-0.7c-0.3-0.1-0.6-0.3-0.9-0.3
			c-0.5,0-0.9,0.1-1.2,0.4c-0.4,0.3-0.6,0.6-0.8,1c-0.1,0.4-0.2,1.2-0.2,2.3v4.5h-2.7v-10h2.5v1.5c0.9-1.1,2-1.7,3.3-1.7
			c0.6,0,1.1,0.1,1.6,0.3s0.9,0.5,1.1,0.8c0.2,0.3,0.4,0.7,0.5,1.1c0.1,0.4,0.1,1,0.1,1.8v6.2H387.4z"/>
		<path class="st0" d="M407.5,259.2v-2.5h2.7v2.5H407.5z M407.5,270.6v-10h2.7v10H407.5z"/>
		<path class="st0" d="M439.4,270.6h-2.7v-5.1c0-1.1-0.1-1.8-0.2-2.1c-0.1-0.3-0.3-0.6-0.6-0.7c-0.3-0.2-0.6-0.3-0.9-0.3
			c-0.5,0-0.9,0.1-1.2,0.4c-0.4,0.3-0.6,0.6-0.8,1c-0.1,0.4-0.2,1.2-0.2,2.3v4.5h-2.7v-10h2.5v1.5c0.9-1.1,2-1.7,3.3-1.7
			c0.6,0,1.1,0.1,1.6,0.3s0.9,0.5,1.1,0.8c0.2,0.3,0.4,0.7,0.5,1.1c0.1,0.4,0.1,1,0.1,1.8v6.2H439.4z"/>
		<path class="st0" d="M459.5,259.2v-2.5h2.7v2.5H459.5z M459.5,270.6v-10h2.7v10H459.5z"/>
	</g>
	<g>
		<path class="st2" d="M220.6,151.9c0,0-6.6-1-11.8-9l-4.7-1.2c-1.6-0.4-3.3,0-4.4,1.1c-1.2,1.2-2.4,3.1-2.6,6.3
			c0,0-0.4,3.9,2.7,4.8l7.3,2L220.6,151.9z"/>
		<g>
			
				<linearGradient id="SVGID_1_" gradientUnits="userSpaceOnUse" x1="203.1" y1="154.5" x2="255.8063" y2="154.5" gradientTransform="matrix(1 0 0 -1 0 270.6)">
				<stop  offset="0" style="stop-color:#FFF23A"/>
				<stop  offset="1.375882e-02" style="stop-color:#FDE338"/>
				<stop  offset="5.590672e-02" style="stop-color:#F9B933"/>
				<stop  offset="9.899844e-02" style="stop-color:#F6972F"/>
				<stop  offset="0.1426" style="stop-color:#F37C2C"/>
				<stop  offset="0.1869" style="stop-color:#F1692A"/>
				<stop  offset="0.2324" style="stop-color:#F05E28"/>
				<stop  offset="0.2809" style="stop-color:#F05A28"/>
				<stop  offset="0.7005" style="stop-color:#EE4036"/>
				<stop  offset="1" style="stop-color:#E83E39"/>
			</linearGradient>
			<path class="st3" d="M238.3,80.6c0,0-18.4,7.4-19.4,32.8c0,0-6.1-5.7-6.6-11.9c0,0-8.2,9.5-2.9,27.6c0,0-4.5,1.4-6.3-0.8
				c0,0,4.3,19.2,19.5,23.3l3.6-1.1c0,0-15.2-9.5-12-32.2c0,0,6.3,8.8,10.1,9.2c0,0-2.9-24.3,7.1-34.3c0,0-1,11.7,2.5,16.4
				c0.4,0.6,0.9,1.2,1.2,1.8c2.1,3.8,7.7,15.4,3.3,26.1c0,0,3.9-1.4,7.6-6.9c0,0,1.8,9.4-5.5,16l8.8-2.1c0,0,7.6-9.4,6.3-17.6
				c0,0-1,3.2-6.2,7.4c0,0,7.3-15.9-0.1-27c0,0,0.4,6.6-5.6,13.2l-3-6.5c-0.6-1.2-1.2-2.4-1.8-3.6C237.5,107.8,234,98.7,238.3,80.6z
				"/>
			
				<linearGradient id="SVGID_2_" gradientUnits="userSpaceOnUse" x1="213.4883" y1="186.8" x2="220.6041" y2="186.8" gradientTransform="matrix(1 0 0 -1 0 270.6)">
				<stop  offset="0" style="stop-color:#FFF23A"/>
				<stop  offset="1.375882e-02" style="stop-color:#FDE338"/>
				<stop  offset="5.590672e-02" style="stop-color:#F9B933"/>
				<stop  offset="9.899844e-02" style="stop-color:#F6972F"/>
				<stop  offset="0.1426" style="stop-color:#F37C2C"/>
				<stop  offset="0.1869" style="stop-color:#F1692A"/>
				<stop  offset="0.2324" style="stop-color:#F05E28"/>
				<stop  offset="0.2809" style="stop-color:#F05A28"/>
				<stop  offset="0.7005" style="stop-color:#EE4036"/>
				<stop  offset="1" style="stop-color:#E83E39"/>
			</linearGradient>
			<path class="st4" d="M217.3,73.4c0,0-0.1,2.6-2.5,7.3c-1.4,2.7-1.7,5.9-0.8,8.9c0.6,1.7,1.5,3.4,3.2,4.6c0,0,1-6.3,2.5-10
				c1-2.5,1.1-5.3-0.1-7.7C219.2,75.5,218.4,74.4,217.3,73.4z"/>
			
				<linearGradient id="SVGID_3_" gradientUnits="userSpaceOnUse" x1="243.2175" y1="174.3" x2="247.5242" y2="174.3" gradientTransform="matrix(1 0 0 -1 0 270.6)">
				<stop  offset="0" style="stop-color:#FFF23A"/>
				<stop  offset="1.375882e-02" style="stop-color:#FDE338"/>
				<stop  offset="5.590672e-02" style="stop-color:#F9B933"/>
				<stop  offset="9.899844e-02" style="stop-color:#F6972F"/>
				<stop  offset="0.1426" style="stop-color:#F37C2C"/>
				<stop  offset="0.1869" style="stop-color:#F1692A"/>
				<stop  offset="0.2324" style="stop-color:#F05E28"/>
				<stop  offset="0.2809" style="stop-color:#F05A28"/>
				<stop  offset="0.7005" style="stop-color:#EE4036"/>
				<stop  offset="1" style="stop-color:#E83E39"/>
			</linearGradient>
			<path class="st5" d="M245.5,90c0,0-0.1,1.6-1.5,4.4c-0.8,1.7-1,3.6-0.5,5.4c0.3,1,0.9,2.1,2,2.8c0,0,0.6-3.8,1.5-6
				c0.6-1.5,0.7-3.2,0-4.7C246.7,91.3,246.2,90.6,245.5,90z"/>
			
				<linearGradient id="SVGID_4_" gradientUnits="userSpaceOnUse" x1="220.6" y1="137.2" x2="240.1" y2="137.2" gradientTransform="matrix(1 0 0 -1 0 270.6)">
				<stop  offset="0" style="stop-color:#FFF23A"/>
				<stop  offset="1.375882e-02" style="stop-color:#FDE338"/>
				<stop  offset="5.590672e-02" style="stop-color:#F9B933"/>
				<stop  offset="9.899844e-02" style="stop-color:#F6972F"/>
				<stop  offset="0.1426" style="stop-color:#F37C2C"/>
				<stop  offset="0.1869" style="stop-color:#F1692A"/>
				<stop  offset="0.2324" style="stop-color:#F05E28"/>
				<stop  offset="0.2809" style="stop-color:#F05A28"/>
				<stop  offset="0.7005" style="stop-color:#EE4036"/>
				<stop  offset="1" style="stop-color:#E83E39"/>
			</linearGradient>
			<path class="st6" d="M229.8,149.6c0,0-7.5-6.5-9.2-16.9c0,0,4,5.7,9.7,5.1c0,0-4.6-9.3,0-20.6c0,0,3.7,4.1,3.4,11.2
				c0,0-1.6,20.6,6.4,11.7c0,0-0.9,3-3.3,5.8c-1.3,1.5-3,2.6-4.9,3.2L229.8,149.6z"/>
			
				<linearGradient id="SVGID_5_" gradientUnits="userSpaceOnUse" x1="223.9434" y1="122.1" x2="228.2271" y2="122.1" gradientTransform="matrix(1 0 0 -1 0 270.6)">
				<stop  offset="0" style="stop-color:#FFF23A"/>
				<stop  offset="1.375882e-02" style="stop-color:#FDE338"/>
				<stop  offset="5.590672e-02" style="stop-color:#F9B933"/>
				<stop  offset="9.899844e-02" style="stop-color:#F6972F"/>
				<stop  offset="0.1426" style="stop-color:#F37C2C"/>
				<stop  offset="0.1869" style="stop-color:#F1692A"/>
				<stop  offset="0.2324" style="stop-color:#F05E28"/>
				<stop  offset="0.2809" style="stop-color:#F05A28"/>
				<stop  offset="0.7005" style="stop-color:#EE4036"/>
				<stop  offset="1" style="stop-color:#E83E39"/>
			</linearGradient>
			<polygon class="st7" points="223.9,147 226.2,147.6 228.2,150 227.2,150 			"/>
		</g>
		<path class="st2" d="M269.7,152.7c0.5-0.8,1-2.5,0.6-5.7c0,0-0.5-3.7-3.2-5.2c-0.6-0.4-1.4-0.5-2.2-0.3l-65.8,17.6
			c-0.7,0.2-1.2,0.7-1.5,1.3c-0.5,1.3-1.2,3.6-0.2,6.7c0,0,0.9,3,3.2,4c0.6,0.3,1.3,0.3,1.9,0.1l65.9-17.6
			C269,153.5,269.5,153.2,269.7,152.7z M202.3,170.1c-1.3,0.4-3-1.5-3.9-4.3c-0.8-2.8-0.5-5.3,0.8-5.7c1.3-0.4,3,1.5,3.9,4.3
			C204,167.1,203.6,169.7,202.3,170.1z"/>
		<path class="st2" d="M261.7,157.3l-25.3,6.5l28.2,7.7c0,0,3.8,0.2,5.5-4.8c0,0,1.3-4.1-0.9-7.1L261.7,157.3z M269.4,165.9
			c-0.7,2.8-2.5,4.7-4.1,4.4c-1.6-0.4-2.4-2.9-1.7-5.7c0.7-2.8,2.5-4.7,4.1-4.4C269.3,160.5,270,163.1,269.4,165.9z"/>
		<ellipse transform="matrix(0.9567 -0.291 0.291 0.9567 -39.3532 65.6091)" class="st2" cx="200.9" cy="165.1" rx="1" ry="2.7"/>
		
			<ellipse transform="matrix(0.2281 -0.9736 0.9736 0.2281 44.4766 386.912)" class="st2" cx="266.3" cy="165.4" rx="3.1" ry="1.2"/>
	</g>
	<g>
		<path class="st8" d="M126,140.3v11.3c0,2.8-2.3,5.1-5.1,5.1H87.5c-2.8,0-5.1-2.3-5.1-5.1V139c0-2.9,2.4-5.2,5.3-5.1l33.4,1.3
			C123.9,135.4,126,137.6,126,140.3z"/>
		<path class="st9" d="M131,128H98c-3,0-5.3-2.5-5.1-5.4c0.5-9,2.8-26.4,13-28.9l30.8,9.9c2.7,0.9,4.3,3.8,3.5,6.5l-4.3,14.2
			C135.2,126.5,133.3,128,131,128z"/>
		<path class="st8" d="M115.6,79.3l11-14c1.9-2.4,5.4-2.9,7.9-1.1l13.1,9.7c1.9,1.4,2.4,4,1.3,6l-7.8,13.4c-1.5,2.5-4.7,3.4-7.2,1.9
			l-17.1-9.8C114.6,84.4,114,81.4,115.6,79.3z"/>
		<path class="st8" d="M175,23.9c4.6-3,13.4-8.2,22.8-10.9c2.6-0.7,5.3,0.5,6.5,2.8c1.8,3.6,4,10.3,4.6,22.4
			c0.1,2.5-1.4,4.7-3.7,5.5l-17.2,6c-2.5,0.9-5.2-0.1-6.6-2.4c-2.5-4.1-6.4-11-8.5-17C171.9,28,172.8,25.3,175,23.9z"/>
		<path class="st9" d="M139.2,47.6c3.4-4.9,10.4-13.4,19.3-17.9c2-1,4.5-0.6,6,1.1c2.7,2.9,7,8.5,10.8,18.2c0.9,2.2,0.4,4.7-1.1,6.4
			c-3.1,3.4-8.6,9.2-14,12.7c-2,1.3-4.6,1.2-6.5-0.2c-3.8-2.8-10.2-7.8-14.3-13C137.7,52.8,137.6,49.8,139.2,47.6z"/>
		<path class="st9" d="M216.8,0h34.6c3,0,5.2,2.7,4.6,5.6l-6.5,30.5c-0.5,2.2-2.4,3.7-4.6,3.7h-23c-2.3,0-4.2-1.6-4.6-3.9l-5.2-30.5
			C211.8,2.6,214,0,216.8,0z"/>
		<path class="st8" d="M268.1,13c5.9,1.4,16.1,4.5,22.7,10.4c1.5,1.4,1.9,3.6,1,5.4l-8.3,16.8c-1,2.1-3.4,3.1-5.6,2.3l-16.8-5.5
			c-2.3-0.7-3.6-3.1-3.1-5.4l4.5-20.5C263.2,14,265.6,12.4,268.1,13z"/>
		<path class="st9" d="M308.2,30.1c5.5,2.6,14.8,8.3,20,19c1.1,2.3,0.5,5.1-1.5,6.7l-13.6,11.1c-2.2,1.8-5.3,1.7-7.3-0.2l-13.7-12.4
			c-2.1-1.9-2.5-5-0.9-7.3l10-15.1C302.7,29.8,305.7,28.9,308.2,30.1z"/>
		<path class="st8" d="M316.3,78l10.3,17.2c0.9,1.6,3,2.1,4.6,1.3L351,85.8c1.9-1,2.4-3.4,1.1-5.1l-13.4-17.5c-1-1.3-2.8-1.7-4.3-1
			c-3.6,1.8-10.4,5.7-17.3,11.3C315.8,74.6,315.4,76.5,316.3,78z"/>
		<path class="st9" d="M330.5,107.5l1.7,15.8c0.3,2.6,2.5,4.6,5.2,4.6h34.2c3.1,0,5.5-2.7,5.2-5.8c-0.7-6.8-2.6-18.2-7.3-26
			c-1.2-2-3.6-3-5.8-2.3l-29.3,8C331.8,102.6,330.2,105,330.5,107.5z"/>
		<path class="st8" d="M346.5,134.5h33.4c2.8,0,5.1,2.3,5.1,5.1v10.7c0,2.8-2.3,5.1-5.1,5.1h-33.4c-2.8,0-5.1-2.3-5.1-5.1v-10.8
			C341.4,136.7,343.7,134.5,346.5,134.5z"/>
	</g>
</g>
</svg>
