<?xml version="1.0" encoding="utf-8"?>
<!-- Generator: Adobe Illustrator 24.0.1, SVG Export Plug-In . SVG Version: 6.00 Build 0)  -->
<svg version="1.1" id="Layer_1" xmlns="http://www.w3.org/2000/svg" xmlns:xlink="http://www.w3.org/1999/xlink" x="0px" y="0px"
	 viewBox="0 0 960 560" style="enable-background:new 0 0 960 560;" xml:space="preserve">
<style type="text/css">
	.st0{fill:#402312;}
	.st1{fill:#FE6E01;}
	.st2{fill:#B50102;}
	.st3{fill:#801918;}
</style>
<g>
	<g>
		<path class="st0" d="M250.4,379.1v-42h13.8c5.2,0,8.6,0.2,10.2,0.6c2.4,0.6,4.5,2,6.1,4.1s2.5,4.8,2.5,8.2c0,2.6-0.5,4.7-1.4,6.5
			s-2.2,3.1-3.6,4.1c-1.5,1-2.9,1.7-4.5,2c-2,0.4-5,0.6-8.9,0.6H259V379L250.4,379.1L250.4,379.1z M259,344.2v11.9h4.7
			c3.4,0,5.6-0.2,6.8-0.7c1.1-0.4,2-1.1,2.7-2.1c0.6-0.9,1-2,1-3.3c0-1.5-0.5-2.8-1.4-3.8s-2.1-1.6-3.5-1.9c-1-0.2-3.1-0.3-6.2-0.3
			H259V344.2z"/>
		<path class="st0" d="M288,363.4c0-2.7,0.7-5.3,2-7.8s3.2-4.4,5.7-5.7c2.4-1.3,5.2-2,8.2-2c4.7,0,8.5,1.5,11.5,4.5
			s4.5,6.8,4.5,11.3c0,4.6-1.5,8.4-4.5,11.4s-6.8,4.5-11.4,4.5c-2.8,0-5.5-0.6-8.1-1.9s-4.5-3.1-5.8-5.5
			C288.7,369.9,288,366.9,288,363.4z M296.4,363.9c0,3,0.7,5.3,2.2,6.9c1.4,1.6,3.2,2.4,5.4,2.4c2.1,0,3.9-0.8,5.4-2.4
			c1.4-1.6,2.2-3.9,2.2-7c0-3-0.7-5.3-2.2-6.9c-1.4-1.6-3.2-2.4-5.4-2.4c-2.1,0-3.9,0.8-5.4,2.4S296.4,360.8,296.4,363.9z"/>
		<path class="st0" d="M323.3,370.4l8.2-1.2c0.3,1.6,1.1,2.8,2.1,3.6c1.1,0.8,2.6,1.2,4.5,1.2c2.1,0,3.7-0.4,4.8-1.1
			c0.7-0.5,1.1-1.3,1.1-2.1c0-0.6-0.2-1.1-0.6-1.5s-1.3-0.7-2.7-1.1c-6.6-1.4-10.7-2.7-12.5-3.9c-2.4-1.6-3.7-3.9-3.7-6.8
			c0-2.6,1.1-4.9,3.2-6.6c2.1-1.8,5.4-2.7,9.8-2.7c4.2,0,7.3,0.7,9.4,2c2,1.4,3.5,3.4,4.2,6l-7.7,1.4c-0.3-1.2-1-2.1-1.9-2.7
			s-2.2-0.9-3.9-0.9c-2.1,0-3.7,0.3-4.6,0.9c-0.6,0.4-0.9,1-0.9,1.6s0.3,1.1,0.8,1.5c0.7,0.5,3.3,1.3,7.6,2.3c4.3,1,7.4,2.2,9.1,3.6
			s2.6,3.4,2.6,6c0,2.8-1.2,5.2-3.5,7.2c-2.4,2-5.8,3-10.5,3c-4.2,0-7.5-0.8-10-2.5C325.7,375.6,324.1,373.3,323.3,370.4z"/>
		<path class="st0" d="M356,379.1v-6.3l11.5-13.1c1.9-2.1,3.3-3.7,4.2-4.6c-0.9,0.1-2.2,0.1-3.7,0.1l-10.9,0.1v-6.7h25.5v5.7
			l-11.8,13.4l-4.1,4.4c2.3-0.1,3.7-0.2,4.2-0.2h12.6v7.1H356V379.1z"/>
		<path class="st0" d="M388.9,358.4V337h8.1v14.5l4-3.3v5.4l-4,3.3v22h-8.1v-15.2l-4,3.3v-5.4L388.9,358.4z"/>
		<path class="st0" d="M403.5,363.4c0-2.7,0.7-5.3,2-7.8s3.2-4.4,5.7-5.7c2.4-1.3,5.2-2,8.2-2c4.7,0,8.5,1.5,11.5,4.5
			s4.5,6.8,4.5,11.3c0,4.6-1.5,8.4-4.5,11.4s-6.8,4.5-11.4,4.5c-2.8,0-5.5-0.6-8.1-1.9s-4.5-3.1-5.8-5.5
			C404.2,369.9,403.5,366.9,403.5,363.4z M411.9,363.9c0,3,0.7,5.3,2.2,6.9c1.4,1.6,3.2,2.4,5.4,2.4c2.1,0,3.9-0.8,5.4-2.4
			c1.4-1.6,2.2-3.9,2.2-7c0-3-0.7-5.3-2.2-6.9c-1.4-1.6-3.2-2.4-5.4-2.4c-2.1,0-3.9,0.8-5.4,2.4S411.9,360.8,411.9,363.9z"/>
		<path class="st0" d="M454.9,379.1v-6.3l11.5-13.1c1.9-2.1,3.3-3.7,4.2-4.6c-0.9,0.1-2.2,0.1-3.7,0.1l-10.9,0.1v-6.7h25.5v5.7
			l-11.8,13.4l-4.1,4.4c2.3-0.1,3.7-0.2,4.2-0.2h12.6v7.1h-27.5L454.9,379.1L454.9,379.1z"/>
		<path class="st0" d="M504.4,337.1h15.7c3.5,0,6.2,0.3,8.1,0.8c2.5,0.7,4.6,2,6.4,3.9c1.8,1.9,3.1,4.1,4.1,6.8
			c0.9,2.7,1.4,6,1.4,9.9c0,3.5-0.4,6.4-1.3,8.9c-1.1,3.1-2.6,5.5-4.6,7.4c-1.5,1.4-3.5,2.5-6,3.4c-1.9,0.6-4.4,0.9-7.6,0.9h-16.2
			L504.4,337.1L504.4,337.1z M513,344.2V372h6.4c2.4,0,4.1-0.1,5.2-0.4c1.4-0.3,2.5-0.9,3.5-1.7c0.9-0.8,1.7-2.2,2.2-4.1
			c0.6-1.9,0.9-4.4,0.9-7.7c0-3.2-0.3-5.7-0.9-7.5c-0.6-1.7-1.4-3.1-2.4-4.1s-2.4-1.6-4-2c-1.2-0.3-3.5-0.4-7-0.4H513V344.2z"/>
		<path class="st0" d="M543.4,348.7h8.7l7.4,21.6l7.2-21.6h8.4L564.2,378l-1.9,5.3c-0.7,1.8-1.4,3.1-2,4.1c-0.6,0.9-1.4,1.7-2.2,2.3
			s-1.9,1-3.1,1.4c-1.2,0.3-2.6,0.5-4.2,0.5c-1.6,0-3.1-0.2-4.6-0.5l-0.7-6.3c1.3,0.2,2.4,0.4,3.5,0.4c1.9,0,3.3-0.5,4.2-1.6
			s1.6-2.5,2.1-4.2L543.4,348.7z"/>
		<path class="st0" d="M579.7,348.7h7.5v4.2c2.7-3.2,5.9-4.8,9.6-4.8c2,0,3.7,0.4,5.1,1.2c1.4,0.8,2.6,2,3.6,3.6
			c1.4-1.6,2.8-2.8,4.4-3.6c1.6-0.8,3.2-1.2,5-1.2c2.3,0,4.2,0.5,5.7,1.4c1.6,0.9,2.7,2.2,3.5,4c0.6,1.3,0.8,3.4,0.8,6.3v19.4h-8.1
			v-17.4c0-3-0.3-5-0.8-5.8c-0.8-1.1-1.9-1.7-3.5-1.7c-1.1,0-2.2,0.3-3.2,1s-1.7,1.7-2.2,3c-0.4,1.3-0.7,3.4-0.7,6.3v14.6h-8.1
			v-16.8c0-3-0.1-4.9-0.4-5.7c-0.3-0.9-0.7-1.5-1.3-1.9s-1.4-0.6-2.5-0.6c-1.3,0-2.4,0.3-3.4,1s-1.7,1.6-2.2,2.9
			c-0.4,1.3-0.7,3.4-0.7,6.3v14.8h-8.1L579.7,348.7L579.7,348.7z"/>
		<path class="st0" d="M650.9,369.4l8.1,1.3c-1,2.9-2.7,5.2-4.9,6.7c-2.3,1.5-5.1,2.3-8.5,2.3c-5.4,0-9.3-1.7-11.9-5.2
			c-2-2.8-3-6.3-3-10.5c0-5,1.3-9,4-11.8c2.7-2.9,6-4.3,10.1-4.3c4.6,0,8.2,1.5,10.8,4.5s3.9,7.6,3.8,13.7H639
			c0.1,2.4,0.7,4.2,2,5.6c1.3,1.3,2.8,2,4.7,2c1.3,0,2.3-0.3,3.2-1C649.8,372,650.5,370.9,650.9,369.4z M651.4,361.3
			c-0.1-2.3-0.7-4.1-1.8-5.3c-1.2-1.2-2.6-1.8-4.2-1.8c-1.8,0-3.2,0.6-4.4,1.9s-1.7,3-1.7,5.2L651.4,361.3L651.4,361.3z"/>
		<path class="st0" d="M665.5,348.7h7.5v4.2c2.7-3.2,5.9-4.8,9.6-4.8c2,0,3.7,0.4,5.1,1.2c1.4,0.8,2.6,2,3.6,3.6
			c1.4-1.6,2.8-2.8,4.4-3.6c1.6-0.8,3.2-1.2,5-1.2c2.3,0,4.2,0.5,5.7,1.4c1.6,0.9,2.7,2.2,3.5,4c0.6,1.3,0.8,3.4,0.8,6.3v19.4h-8.1
			v-17.4c0-3-0.3-5-0.8-5.8c-0.8-1.1-1.9-1.7-3.5-1.7c-1.1,0-2.2,0.3-3.2,1s-1.7,1.7-2.2,3c-0.4,1.3-0.7,3.4-0.7,6.3v14.6h-8.1
			v-16.8c0-3-0.1-4.9-0.4-5.7c-0.3-0.9-0.7-1.5-1.3-1.9s-1.4-0.6-2.5-0.6c-1.3,0-2.4,0.3-3.4,1s-1.7,1.6-2.2,2.9
			c-0.4,1.3-0.7,3.4-0.7,6.3v14.8h-8.1L665.5,348.7L665.5,348.7z"/>
	</g>
	<g>
		<path class="st1" d="M372.3,303v11.3c0,2.8-2.3,5.1-5.1,5.1h-33.4c-2.8,0-5.1-2.3-5.1-5.1v-12.6c0-2.9,2.4-5.2,5.3-5.1l33.4,1.3
			C370.2,298.1,372.3,300.3,372.3,303z"/>
		<path class="st2" d="M377.3,290.7h-33c-3,0-5.3-2.5-5.1-5.4c0.5-9,2.8-26.4,13-28.9l30.8,9.9c2.7,0.9,4.3,3.8,3.5,6.5l-4.3,14.2
			C381.5,289.2,379.6,290.7,377.3,290.7z"/>
		<path class="st1" d="M361.9,242l11-14c1.9-2.4,5.4-2.9,7.9-1.1l13.1,9.7c1.9,1.4,2.4,4,1.3,6l-7.8,13.4c-1.5,2.5-4.7,3.4-7.2,1.9
			l-17.1-9.8C360.9,247.1,360.3,244.1,361.9,242z"/>
		<path class="st1" d="M421.3,186.6c4.6-3,13.4-8.2,22.8-10.9c2.6-0.7,5.3,0.5,6.5,2.8c1.8,3.6,4,10.3,4.6,22.4
			c0.1,2.5-1.4,4.7-3.7,5.5l-17.2,6c-2.5,0.9-5.2-0.1-6.6-2.4c-2.5-4.1-6.4-11-8.5-17C418.2,190.7,419.1,188,421.3,186.6z"/>
		<path class="st2" d="M385.5,210.3c3.4-4.9,10.4-13.4,19.3-17.9c2-1,4.5-0.6,6,1.1c2.7,2.9,7,8.5,10.8,18.2
			c0.9,2.2,0.4,4.7-1.1,6.4c-3.1,3.4-8.6,9.2-14,12.7c-2,1.3-4.6,1.2-6.5-0.2c-3.8-2.8-10.2-7.8-14.3-13
			C384,215.5,383.9,212.5,385.5,210.3z"/>
		<path class="st2" d="M463.1,162.7h34.6c3,0,5.2,2.7,4.6,5.6l-6.5,30.5c-0.5,2.2-2.4,3.7-4.6,3.7h-23c-2.3,0-4.2-1.6-4.6-3.9
			l-5.2-30.5C458.1,165.3,460.3,162.7,463.1,162.7z"/>
		<path class="st1" d="M514.4,175.7c5.9,1.4,16.1,4.5,22.7,10.4c1.5,1.4,1.9,3.6,1,5.4l-8.3,16.8c-1,2.1-3.4,3.1-5.6,2.3l-16.8-5.5
			c-2.3-0.7-3.6-3.1-3.1-5.4l4.5-20.5C509.5,176.7,511.9,175.1,514.4,175.7z"/>
		<path class="st2" d="M554.5,192.8c5.5,2.6,14.8,8.3,20,19c1.1,2.3,0.5,5.1-1.5,6.7l-13.6,11.1c-2.2,1.8-5.3,1.7-7.3-0.2L538.4,217
			c-2.1-1.9-2.5-5-0.9-7.3l10-15.1C549,192.5,552,191.6,554.5,192.8z"/>
		<path class="st1" d="M562.6,240.7l10.3,17.2c0.9,1.6,3,2.1,4.6,1.3l19.8-10.7c1.9-1,2.4-3.4,1.1-5.1L585,225.9
			c-1-1.3-2.8-1.7-4.3-1c-3.6,1.8-10.4,5.7-17.3,11.3C562.1,237.3,561.7,239.2,562.6,240.7z"/>
		<path class="st2" d="M576.8,270.2l1.7,15.8c0.3,2.6,2.5,4.6,5.2,4.6h34.2c3.1,0,5.5-2.7,5.2-5.8c-0.7-6.8-2.6-18.2-7.3-26
			c-1.2-2-3.6-3-5.8-2.3l-29.3,8C578.1,265.3,576.5,267.7,576.8,270.2z"/>
		<path class="st1" d="M592.8,297.2h33.4c2.8,0,5.1,2.3,5.1,5.1V313c0,2.8-2.3,5.1-5.1,5.1h-33.4c-2.8,0-5.1-2.3-5.1-5.1v-10.8
			C587.7,299.4,590,297.2,592.8,297.2z"/>
	</g>
	<path class="st3" d="M557.5,289.2c-0.8,1.5-1.9,2.7-3.2,3.4l-2.9,1.6l0.1-4.1c0.1-4.2-0.4-8.4-1.5-12.4c-1,4.1-2.7,8-5,11.1
		l-4.1,5.7l0.6-7.8c0.4-5.5-0.7-11.1-3.1-15.6c-1,2.9-2.2,5.2-3.6,6.9c-3,3.6-7.2,4.5-10.4,2.4c-1.7-1.1-3.1-3-4.3-5.9
		c-3.4-7.6-3.9-17.4-1.5-25.7c-1.7,1.1-3.2,2.4-4.6,4c-0.7,0.8-1.4,1.7-1.7,2.7s-0.3,2.3-0.3,3.7c0,0.6,0,1.1,0,1.7
		c-0.2,8.3-4.5,16.2-10.5,19l-3.5,1.7l0.9-4.8c0.6-3.3-0.1-7-1.9-9.5c-1.3-1.9-3.3-3.1-5.3-3.3c-0.1,7.8-2.9,15.7-7.6,20.6l-2.9,3.1
		l-0.3-4.9c-0.5-7.3-5-14-10.3-15.8c0.3,5-0.9,10.2-3.2,14.1c-2.9,5-7.7,8-12.5,7.9l-2-0.1v-2.6c0-6.4-1-11.7-3-15.9
		c-1.9-4-4.8-6.8-7.9-7.7c-1.6,7.6-5.6,14.2-10.9,17.9l-3.3,2.3l0.4-4.9c0.4-4.8-0.8-9.8-3-13.6c-1.5,3.7-4.1,6.6-6.4,9.2
		c-0.4,0.4-0.8,0.9-1.2,1.3c-1.8,2-5.8,7.3-4.6,12.2l1.5,6.3l-4.4-3.2c-1.9-1.4-3.3-3.6-4-6.2c-2.4,5-3.7,10.8-3.7,16.8
		c0,6.6,1.6,13.2,4.5,18.5H561C562.1,309.2,560.9,298.5,557.5,289.2z"/>
</g>
</svg>
