<svg xmlns="http://www.w3.org/2000/svg" viewBox="0 0 411 437"><defs><style>.cls-1{fill:#ff8000;}</style></defs><title>PysznePL-FullColour-Logo-Vertical-RGB</title><g id="PysznePL"><g id="TakeawayCOM_Full_Colour" data-name="TakeawayCOM Full Colour"><path id="House" class="cls-1" d="M322.38,161a356,356,0,0,0-25.71-37.44l-.23-.3-.08-.09c-.47-.59-1.69-2.1-2.15-2.69-4.27-5.84-3.67-10.1-3.67-10.1-2.57-29.15-5.6-42.54-6.18-46-.7-4.06-1.86-8.28-7.75-8.92-4.78-.49-11.85-1.29-19.67-1.69-6.57-.33-7.38,6.37-7.38,6.37-.14,6.8,0,10.07,0,10.86a1.72,1.72,0,0,1-1.4,2,2.35,2.35,0,0,1-1.43-.42,300.1,300.1,0,0,0-33.88-24.43,16.09,16.09,0,0,0-7.74-2.21,13.17,13.17,0,0,0-6.73,2.21C194.86,50.35,134.64,84.55,89,160.63c0,0-2.83,4-.71,7.69A6.87,6.87,0,0,0,94.48,172l19,2.21c3.6.38,3.58,3.32,3.58,3.32a725.18,725.18,0,0,0,6,99.34s.82,5.53,6.29,5.8c2.21.11,10.41-.37,32.26-.86a1.5,1.5,0,0,0,1.66-1.34,1.21,1.21,0,0,0,0-.38c-2.09-21.62-2.76-40.32-2.81-41.4a2,2,0,0,0-1.26-1.75,26.1,26.1,0,0,1-13.15-22.45c-.61-42.79,2-75.64,2-75.64s.26-4.55,4.26-4.19,3.74,4.85,3.74,4.85c-1.43,18.43-2,51.65-2,51.65s0,6.32,6.05,6.31,6.06-6.31,6.06-6.31c-.19-26,2-52.13,2-52.13s0-4.42,4.27-4.42c3.87,0,3.74,4.94,3.74,4.94-1.82,22.58-2,51.58-2,51.58s0,6.32,6.05,6.3,6-6.82,6-6.82c-.1-21.55,2-51.79,2-51.79a4,4,0,0,1,3.81-4.17,2.54,2.54,0,0,1,.39,0c3.59,0,3.8,4.17,3.8,4.17-2,23.39-2,59.31-1.9,74.84a25.79,25.79,0,0,1-12.29,22.77,2.35,2.35,0,0,0-1,2.22c.5,14.22,1.69,30,2.72,41.31a1.56,1.56,0,0,0,1.4,1.45c6,0,12.63-.08,19.91-.08,11.68,0,21.35.08,29.93.2,1,0,1.42-.71,1.5-1.7,2.21-20.47,3-35.3,3.1-36.59.13-1.46-1.67-1.74-1.67-1.74-3.14-.18-8.95-1.11-14.29-2s-5.53-6.95-5.53-6.95c-4.5-63.87,29.2-103.67,29.2-103.67s3.32-4.32,8-2.69,4.63,6.64,4.63,6.64c4.73,53.18.06,121.75-2.91,147.14a1.71,1.71,0,0,0,1.3,2.05l.28,0c14.38.42,21.12.83,23,.62a7.27,7.27,0,0,0,6.44-6.11c7.17-49.47,6.08-99.09,6.08-99.09a3.64,3.64,0,0,1,3.31-3.32l19.4-2.08a6.59,6.59,0,0,0,5.83-3.57,7.94,7.94,0,0,0-.34-7.48"/></g><g id="PysznePL-2" data-name="PysznePL"><g id="PysznePL_Full_Colour" data-name="PysznePL Full Colour"><g id="PysznePL-2-2" data-name="PysznePL-2"><path class="cls-1" d="M291.45,331.7a17,17,0,0,0-6.2-4.44,20.74,20.74,0,0,0-8.16-1.55,26.37,26.37,0,0,0-9.09,1.55,22.32,22.32,0,0,0-7.41,4.44,21,21,0,0,0-4.95,6.94,30.37,30.37,0,0,0,0,20.6,21.16,21.16,0,0,0,4.95,6.93,22.08,22.08,0,0,0,7.41,4.45,26.36,26.36,0,0,0,9.09,1.54,23.73,23.73,0,0,0,9.85-2.11,21.06,21.06,0,0,0,6.45-4.48,2,2,0,0,0,0-2.66l-5.87-4.31h0l-.42-.3a2,2,0,0,0-2.36.31A15.19,15.19,0,0,1,282,361a9.78,9.78,0,0,1-5.49,1.38,9.48,9.48,0,0,1-6.35-2.2,11.6,11.6,0,0,1-3.3-7.41,1,1,0,0,1,.81-.95h27.27a2,2,0,0,0,1.86-2v-2.11a27.22,27.22,0,0,0-1.39-9.05A20,20,0,0,0,291.45,331.7ZM282.81,343h-15a1,1,0,0,1-1-.93,8.61,8.61,0,0,1,.63-2,7.6,7.6,0,0,1,1.81-2.5,9.38,9.38,0,0,1,2.79-1.77,9.71,9.71,0,0,1,3.81-.68,7.6,7.6,0,0,1,5.77,2.32,7.37,7.37,0,0,1,2.11,4.67A1,1,0,0,1,282.81,343Z"/><path class="cls-1" d="M161.8,347.23a19.17,19.17,0,0,0-5.15-2.12l-5.15-1.25a20.48,20.48,0,0,1-4-1.34,2.52,2.52,0,0,1-1.57-2.38,2.9,2.9,0,0,1,1.54-2.8,6.6,6.6,0,0,1,3.17-.8,8.69,8.69,0,0,1,6.13,2.33,1.92,1.92,0,0,0,2.56,0l5.22-5.48a2,2,0,0,0,0-2.53,15.61,15.61,0,0,0-5.79-3.26,28.49,28.49,0,0,0-8.2-1.24,23.81,23.81,0,0,0-6.35.84,16.28,16.28,0,0,0-5.53,2.66,13.39,13.39,0,0,0-3.89,4.57,14,14,0,0,0-1.49,6.66,12.14,12.14,0,0,0,1.57,6.59,11.09,11.09,0,0,0,4,3.82,20.81,20.81,0,0,0,5.16,2l5.16,1.25a17,17,0,0,1,4,1.44,2.76,2.76,0,0,1,1.56,2.56,2.47,2.47,0,0,1-1.77,2.47,11,11,0,0,1-4,.68,10,10,0,0,1-5-1.22,11.86,11.86,0,0,1-2.72-2.12,2,2,0,0,0-2.57.18L133.36,365a2,2,0,0,0,.31,2.64h0a16.11,16.11,0,0,0,6.05,3.26,29.82,29.82,0,0,0,8.7,1.3,33.17,33.17,0,0,0,6.67-.67,18,18,0,0,0,6.09-2.33,13.66,13.66,0,0,0,4.45-4.4,12.85,12.85,0,0,0,1.72-7,12.36,12.36,0,0,0-1.55-6.6A12.11,12.11,0,0,0,161.8,347.23Z"/><path class="cls-1" d="M80.07,317.43a19.1,19.1,0,0,0-7-2.81,37.08,37.08,0,0,0-8-.82H47.85A1.87,1.87,0,0,0,46,315.58v54.14a1.88,1.88,0,0,0,1.83,1.78H57a1.85,1.85,0,0,0,1.8-1.84V349.94a1,1,0,0,1,.9-.94h6a34.78,34.78,0,0,0,8-.85,18.43,18.43,0,0,0,6.77-2.89A14,14,0,0,0,85,339.8a19.73,19.73,0,0,0,1.64-8.47,18.51,18.51,0,0,0-1.76-8.47A14.33,14.33,0,0,0,80.07,317.43Zm-7.5,17.28a5.63,5.63,0,0,1-2,2.11,6.16,6.16,0,0,1-2.38,1.06,15.92,15.92,0,0,1-3.3.32H59.64a.91.91,0,0,1-.91-.91h0V325.49a.92.92,0,0,1,.87-.92h3.3a36.24,36.24,0,0,1,3.75.2,8.59,8.59,0,0,1,3.08.93,6.78,6.78,0,0,1,2.6,2.12,5.75,5.75,0,0,1,1.06,3.54A6.76,6.76,0,0,1,72.57,334.71Z"/><path class="cls-1" d="M205,361.24H185.33a.71.71,0,0,1-.58-.69.75.75,0,0,1,.19-.49l.29-.26.22-.21,18.62-17.69,1.05-1.06a3.87,3.87,0,0,0,1.34-2.82v-8.87h0a2,2,0,0,0-2-2H172.22a2,2,0,0,0-2,1.93v6.48a2,2,0,0,0,2,1.93h17.63a.71.71,0,0,1,.64.7.74.74,0,0,1-.13.41L173.7,354.78h0l-2.38,2.33-.46.44a3.92,3.92,0,0,0-1.12,2.67v9.42a2,2,0,0,0,2,1.93H205a2,2,0,0,0,2-2h0v-6.35h0a2,2,0,0,0-2-2Z"/><path class="cls-1" d="M133.81,328.67h0a1.71,1.71,0,0,0-.09-.3,1.93,1.93,0,0,0-1.67-1.18h-7.68a3.9,3.9,0,0,0-3.39,2.27h0l-.12.35-.07.19a3,3,0,0,1-.07.32l-.24.75h0l-7,22.86h0l-.1.28a.92.92,0,0,1-.93.68,1,1,0,0,1-.89-.59L103.22,331h0l-.1-.29-.56-1.58a3.83,3.83,0,0,0-3.25-2H90.62a2,2,0,0,0-1.42,1.14,1.58,1.58,0,0,0-.09.31h0a1.89,1.89,0,0,0,.06,1L105.74,370a4,4,0,0,1-.13,2.55.29.29,0,0,0,0,.13l-.3.76c-.46,1.12-.88,2.12-1.28,3a7.49,7.49,0,0,1-1.48,2.12,6.18,6.18,0,0,1-2.25,1.36,11,11,0,0,1-3.47.45H91.24a1.93,1.93,0,0,0-1.87,1.89v6.89a1.94,1.94,0,0,0,1.87,2h7.33a25.42,25.42,0,0,0,7.41-.89,11.74,11.74,0,0,0,4.61-2.63,13.93,13.93,0,0,0,3-4.23c.78-1.7,1.61-3.64,2.44-5.83l17.79-48A1.89,1.89,0,0,0,133.81,328.67Z"/><path class="cls-1" d="M247.14,331.83a11.3,11.3,0,0,0-4.7-4.18,17.69,17.69,0,0,0-7.92-1.52,14.65,14.65,0,0,0-4.32.61,15.21,15.21,0,0,0-3.53,1.55,12.4,12.4,0,0,0-2.67,2.12c-.27.3-.51.58-.74.87a.66.66,0,0,1-.46.19.7.7,0,0,1-.7-.68V329.1a2,2,0,0,0-2-2h-8.47a2,2,0,0,0-2,2v40.54a2,2,0,0,0,2,1.87h9a2,2,0,0,0,2-1.88V348.2a27.77,27.77,0,0,1,.26-4,9.7,9.7,0,0,1,1.06-3.4,6.19,6.19,0,0,1,2.37-2.42,8.06,8.06,0,0,1,4.06-.9,6.08,6.08,0,0,1,3.83,1.06,6.26,6.26,0,0,1,2.05,2.66,11.82,11.82,0,0,1,.77,3.57c.09,1.29.13,2.54.13,3.75v21.17a2,2,0,0,0,2,1.86h9a2,2,0,0,0,2-1.87V346a46.74,46.74,0,0,0-.61-7.84A16.85,16.85,0,0,0,247.14,331.83Z"/><path class="cls-1" d="M363,306.7h-3a2,2,0,0,0-2,2V369.6a2,2,0,0,0,2,2h3a2,2,0,0,0,2-2V308.75A2,2,0,0,0,363,306.7Z"/><path class="cls-1" d="M302.63,362.39a4.54,4.54,0,0,0-3.5,1.48,4.87,4.87,0,0,0,6.9,6.86l.11-.1a4.91,4.91,0,0,0,0-6.76A4.58,4.58,0,0,0,302.63,362.39Z"/><path class="cls-1" d="M346.77,332.93a17.35,17.35,0,0,0-5.93-4.32,19,19,0,0,0-15,0,14.43,14.43,0,0,0-5.06,3.65v-3.32h0a2,2,0,0,0-2-1.79h-3a2,2,0,0,0-1.95,1.79v59.79a2,2,0,0,0,1.95,1.78h3a2,2,0,0,0,1.95-1.78h0V367.87A14.3,14.3,0,0,0,325.8,371a19,19,0,0,0,15,0,17.21,17.21,0,0,0,5.92-4.32,20.84,20.84,0,0,0,3.9-6.61,31.94,31.94,0,0,0,1.43-9.75c0-3.18-.48-8.21-1.43-10.77A20.94,20.94,0,0,0,346.77,332.93Zm-1.84,24.45a14.14,14.14,0,0,1-2.51,4.7,12.23,12.23,0,0,1-3.94,3.17,11.59,11.59,0,0,1-14.21-3.17,14.14,14.14,0,0,1-2.51-4.7,27.55,27.55,0,0,1-.86-7.05,36.7,36.7,0,0,1,.86-8.09,14.14,14.14,0,0,1,2.51-4.7,11.59,11.59,0,0,1,14.21-3.17,12.23,12.23,0,0,1,3.94,3.17,14,14,0,0,1,2.51,4.7,36.11,36.11,0,0,1,.86,8.09A27.5,27.5,0,0,1,344.93,357.38Z"/></g></g></g></g></svg>